<?xml version="1.0" encoding="UTF-8"?>
<!-- Generator: Adobe Illustrator 22.1.0, SVG Export Plug-In . SVG Version: 6.00 Build 0)  -->
<svg version="1.1" id="Layer_1" xmlns="http://www.w3.org/2000/svg" xmlns:xlink="http://www.w3.org/1999/xlink" x="0px" y="0px" viewBox="0 0 350.8 405.4" style="enable-background:new 0 0 350.8 405.4;" xml:space="preserve">
<path d="M339.4,78.8c-7.6-17-18.4-31.3-32.4-43c-14.1-11.6-31.1-20.5-51-26.6C236,3.1,213.9,0,189.5,0h-10.7H0v276.7l60.4,0.2  l0.9,128.5l119.4-128.1h3.1c24,0,46.3-3,66.8-8.9s38.2-14.8,53-26.6c14.8-11.8,26.3-26.4,34.7-43.8c8.3-17.4,12.5-37.5,12.5-60.4  v-1.1C350.8,115.1,347,95.8,339.4,78.8z"/>
</svg>