<?xml version="1.0" encoding="utf-8"?>
<!-- Generator: Adobe Illustrator 21.0.0, SVG Export Plug-In . SVG Version: 6.00 Build 0)  -->
<svg version="1.1" id="Calque_1" xmlns="http://www.w3.org/2000/svg" xmlns:xlink="http://www.w3.org/1999/xlink" x="0px" y="0px"
	 viewBox="0 0 314.1 82.5" style="enable-background:new 0 0 314.1 82.5;" xml:space="preserve">
<style type="text/css">
	.st0{fill:#152D75;}
	.st1{fill:#FFFFFF;}
</style>
<g>
	<g>
		<g>
			<polygon class="st0" points="63.4,66.2 53.3,76.4 43.1,66.2 40.2,66.2 53.3,79.3 66.3,66.2 			"/>
		</g>
		<g>
			<polygon class="st0" points="78.3,54.3 91.3,41.2 78.3,28.2 78.3,31.1 88.4,41.2 78.3,51.4 			"/>
		</g>
		<g>
			<polygon class="st0" points="43.1,16.2 53.3,6.1 63.4,16.2 66.3,16.2 53.3,3.2 40.2,16.2 			"/>
		</g>
		<g>
			<polygon class="st0" points="28.3,51.4 18.2,41.2 28.3,31.1 28.3,28.2 15.3,41.2 28.3,54.3 			"/>
		</g>
	</g>
	<g>
		
			<rect x="32.4" y="20.2" transform="matrix(0.7071 -0.7071 0.7071 0.7071 -13.4944 49.8176)" class="st0" width="41.9" height="41.9"/>
	</g>
	<g>
		<g>
			<g>
				<path class="st0" d="M98.5,34.1l4.8-11.2h0.7l4.8,11.2h-0.9l-1.6-3.7h-5.4l-1.6,3.7H98.5z M103.6,23.9l-2.5,5.9h4.9L103.6,23.9z
					"/>
			</g>
			<g>
				<path class="st0" d="M116.8,24.8c-0.7-0.8-1.8-1.2-3.1-1.2c-1.1,0-1.9,0.2-2.4,0.6s-0.8,1-0.8,1.7c0,0.4,0.1,0.7,0.2,0.9
					c0.1,0.2,0.3,0.4,0.6,0.6c0.3,0.2,0.6,0.3,1,0.4s0.9,0.2,1.5,0.4c0.6,0.1,1.2,0.3,1.6,0.4c0.5,0.2,0.9,0.3,1.2,0.6
					c0.3,0.2,0.6,0.5,0.8,0.9c0.2,0.3,0.3,0.8,0.3,1.2c0,0.5-0.1,0.9-0.3,1.3c-0.2,0.4-0.5,0.7-0.8,0.9c-0.4,0.2-0.8,0.4-1.3,0.6
					c-0.5,0.1-1,0.2-1.6,0.2c-1.7,0-3.2-0.6-4.4-1.7l0.4-0.6c0.5,0.5,1.1,0.9,1.7,1.2c0.7,0.3,1.5,0.4,2.3,0.4c1,0,1.7-0.2,2.3-0.5
					c0.6-0.4,0.8-0.9,0.8-1.6c0-0.4-0.1-0.7-0.2-0.9c-0.1-0.3-0.4-0.5-0.7-0.7c-0.3-0.2-0.7-0.4-1.1-0.5s-1-0.3-1.5-0.4
					c-0.6-0.1-1.1-0.3-1.6-0.4s-0.8-0.3-1.2-0.5c-0.3-0.2-0.6-0.5-0.7-0.8c-0.2-0.3-0.2-0.7-0.2-1.2s0.1-1,0.3-1.3
					c0.2-0.4,0.5-0.7,0.8-1s0.8-0.5,1.2-0.6c0.5-0.1,1-0.2,1.6-0.2c0.7,0,1.4,0.1,1.9,0.3c0.6,0.2,1.1,0.5,1.5,1L116.8,24.8z"/>
			</g>
			<g>
				<path class="st0" d="M126.5,24.8c-0.7-0.8-1.8-1.2-3.1-1.2c-1.1,0-1.9,0.2-2.4,0.6s-0.8,1-0.8,1.7c0,0.4,0.1,0.7,0.2,0.9
					c0.1,0.2,0.3,0.4,0.6,0.6s0.6,0.3,1,0.4s0.9,0.2,1.5,0.4c0.6,0.1,1.2,0.3,1.6,0.4c0.5,0.2,0.9,0.3,1.2,0.6
					c0.3,0.2,0.6,0.5,0.8,0.9c0.2,0.3,0.3,0.8,0.3,1.2c0,0.5-0.1,0.9-0.3,1.3s-0.5,0.7-0.8,0.9c-0.4,0.2-0.8,0.4-1.3,0.6
					c-0.5,0.1-1,0.2-1.6,0.2c-1.7,0-3.2-0.6-4.4-1.7l0.4-0.6c0.5,0.5,1.1,0.9,1.7,1.2c0.7,0.3,1.5,0.4,2.3,0.4c1,0,1.7-0.2,2.3-0.5
					c0.6-0.4,0.8-0.9,0.8-1.6c0-0.4-0.1-0.7-0.2-0.9c-0.1-0.3-0.4-0.5-0.7-0.7s-0.7-0.4-1.1-0.5c-0.4-0.1-1-0.3-1.5-0.4
					c-0.6-0.1-1.1-0.3-1.6-0.4s-0.8-0.3-1.2-0.5c-0.3-0.2-0.6-0.5-0.7-0.8c-0.2-0.3-0.2-0.7-0.2-1.2s0.1-1,0.3-1.3
					c0.2-0.4,0.5-0.7,0.8-1s0.8-0.5,1.2-0.6c0.5-0.1,1-0.2,1.6-0.2c0.7,0,1.4,0.1,1.9,0.3c0.6,0.2,1.1,0.5,1.5,1L126.5,24.8z"/>
			</g>
			<g>
				<path class="st0" d="M134.1,34.2c-0.8,0-1.5-0.2-2.1-0.5s-1.2-0.8-1.7-1.3c-0.5-0.5-0.8-1.1-1.1-1.8c-0.3-0.7-0.4-1.4-0.4-2.1
					s0.1-1.5,0.4-2.2c0.3-0.7,0.6-1.3,1.1-1.8s1-0.9,1.7-1.3c0.6-0.3,1.3-0.5,2.1-0.5s1.5,0.2,2.1,0.5s1.2,0.8,1.7,1.3
					s0.8,1.1,1.1,1.8c0.3,0.7,0.4,1.4,0.4,2.1c0,0.8-0.1,1.5-0.4,2.2c-0.3,0.7-0.6,1.3-1.1,1.8c-0.5,0.5-1,0.9-1.7,1.2
					C135.6,34.1,134.9,34.2,134.1,34.2z M129.7,28.5c0,0.6,0.1,1.3,0.3,1.9s0.5,1.1,0.9,1.6c0.4,0.5,0.9,0.8,1.4,1.1
					c0.5,0.3,1.1,0.4,1.8,0.4s1.3-0.1,1.8-0.4s1-0.7,1.4-1.1c0.4-0.4,0.7-1,0.9-1.6s0.3-1.2,0.3-1.8c0-0.6-0.1-1.3-0.3-1.9
					s-0.5-1.1-0.9-1.6s-0.9-0.8-1.4-1.1c-0.5-0.3-1.1-0.4-1.8-0.4s-1.3,0.1-1.8,0.4s-1,0.7-1.4,1.1c-0.4,0.5-0.7,1-0.9,1.6
					C129.8,27.3,129.7,27.9,129.7,28.5z"/>
			</g>
			<g>
				<path class="st0" d="M140.9,28.5c0-0.7,0.1-1.3,0.4-2c0.2-0.7,0.6-1.3,1-1.8c0.5-0.5,1-1,1.7-1.3s1.4-0.5,2.3-0.5
					c1,0,1.9,0.2,2.6,0.7s1.2,1,1.6,1.8l-0.7,0.4c-0.2-0.4-0.4-0.7-0.7-1s-0.6-0.5-0.9-0.6c-0.3-0.2-0.6-0.3-1-0.4
					c-0.3-0.1-0.7-0.1-1-0.1c-0.7,0-1.3,0.1-1.9,0.4c-0.5,0.3-1,0.7-1.4,1.1c-0.4,0.5-0.7,1-0.9,1.6s-0.3,1.2-0.3,1.8
					c0,0.7,0.1,1.3,0.3,1.9s0.5,1.1,0.9,1.6c0.4,0.5,0.9,0.8,1.4,1.1c0.5,0.3,1.1,0.4,1.8,0.4c0.3,0,0.7,0,1-0.1
					c0.4-0.1,0.7-0.2,1-0.4c0.3-0.2,0.6-0.4,0.9-0.7c0.3-0.3,0.5-0.6,0.7-1l0.7,0.3c-0.2,0.4-0.4,0.8-0.8,1.1
					c-0.3,0.3-0.7,0.6-1.1,0.8c-0.4,0.2-0.8,0.4-1.3,0.5c-0.4,0.1-0.9,0.2-1.3,0.2c-0.8,0-1.5-0.2-2.1-0.5s-1.2-0.8-1.7-1.3
					c-0.5-0.5-0.8-1.2-1.1-1.8C141,29.9,140.9,29.2,140.9,28.5z"/>
			</g>
			<g>
				<path class="st0" d="M152.6,34.1V22.9h0.8v11.2H152.6z"/>
			</g>
			<g>
				<path class="st0" d="M155.2,34.1l4.8-11.2h0.7l4.8,11.2h-0.9l-1.6-3.7h-5.4l-1.6,3.7H155.2z M160.3,23.9l-2.5,5.9h4.9
					L160.3,23.9z"/>
			</g>
			<g>
				<path class="st0" d="M173.9,23.6h-4.1v10.5h-0.9V23.6h-4.1v-0.7h9v0.7H173.9z"/>
			</g>
			<g>
				<path class="st0" d="M175.7,34.1V22.9h0.8v11.2H175.7z"/>
			</g>
			<g>
				<path class="st0" d="M184,34.2c-0.8,0-1.5-0.2-2.1-0.5s-1.2-0.8-1.7-1.3c-0.5-0.5-0.8-1.1-1.1-1.8c-0.3-0.7-0.4-1.4-0.4-2.1
					s0.1-1.5,0.4-2.2c0.3-0.7,0.6-1.3,1.1-1.8s1-0.9,1.7-1.3c0.6-0.3,1.3-0.5,2.1-0.5s1.5,0.2,2.1,0.5s1.2,0.8,1.7,1.3
					s0.8,1.1,1.1,1.8c0.3,0.7,0.4,1.4,0.4,2.1c0,0.8-0.1,1.5-0.4,2.2c-0.3,0.7-0.6,1.3-1.1,1.8c-0.5,0.5-1,0.9-1.7,1.2
					C185.4,34.1,184.7,34.2,184,34.2z M179.5,28.5c0,0.6,0.1,1.3,0.3,1.9s0.5,1.1,0.9,1.6c0.4,0.5,0.9,0.8,1.4,1.1
					c0.5,0.3,1.1,0.4,1.8,0.4s1.3-0.1,1.8-0.4s1-0.7,1.4-1.1c0.4-0.4,0.7-1,0.9-1.6s0.3-1.2,0.3-1.8c0-0.6-0.1-1.3-0.3-1.9
					s-0.5-1.1-0.9-1.6s-0.9-0.8-1.4-1.1c-0.5-0.3-1.1-0.4-1.8-0.4s-1.3,0.1-1.8,0.4s-1,0.7-1.4,1.1c-0.4,0.5-0.7,1-0.9,1.6
					C179.6,27.3,179.5,27.9,179.5,28.5z"/>
			</g>
			<g>
				<path class="st0" d="M192.3,24.4v9.7h-0.8V22.9h0.6l7.9,9.9v-9.9h0.8v11.2h-0.7L192.3,24.4z"/>
			</g>
			<g>
				<path class="st0" d="M210.2,24.4v9.7h-0.8V22.9h0.6l7.9,9.9v-9.9h0.8v11.2h-0.8L210.2,24.4z"/>
			</g>
			<g>
				<path class="st0" d="M220.4,34.1l4.8-11.2h0.7l4.8,11.2h-0.9l-1.6-3.7h-5.3l-1.6,3.7H220.4z M225.6,23.9l-2.5,5.9h4.9
					L225.6,23.9z"/>
			</g>
			<g>
				<path class="st0" d="M239.1,23.6H235v10.5h-0.8V23.6h-4.1v-0.7h9L239.1,23.6L239.1,23.6z"/>
			</g>
			<g>
				<path class="st0" d="M241,34.1V22.9h0.8v11.2H241z"/>
			</g>
			<g>
				<path class="st0" d="M249.3,34.2c-0.8,0-1.5-0.2-2.1-0.5s-1.2-0.8-1.7-1.3c-0.5-0.5-0.8-1.1-1.1-1.8c-0.3-0.7-0.4-1.4-0.4-2.1
					s0.1-1.5,0.4-2.2c0.3-0.7,0.6-1.3,1.1-1.8s1-0.9,1.7-1.3c0.6-0.3,1.3-0.5,2.1-0.5c0.8,0,1.5,0.2,2.1,0.5s1.2,0.8,1.7,1.3
					s0.8,1.1,1.1,1.8c0.3,0.7,0.4,1.4,0.4,2.1c0,0.8-0.1,1.5-0.4,2.2s-0.6,1.3-1.1,1.8c-0.5,0.5-1,0.9-1.7,1.2
					C250.7,34.1,250,34.2,249.3,34.2z M244.8,28.5c0,0.6,0.1,1.3,0.3,1.9s0.5,1.1,0.9,1.6c0.4,0.5,0.9,0.8,1.4,1.1
					c0.5,0.3,1.1,0.4,1.8,0.4c0.7,0,1.3-0.1,1.8-0.4s1-0.7,1.4-1.1c0.4-0.5,0.7-1,0.9-1.6c0.2-0.6,0.3-1.2,0.3-1.8
					c0-0.6-0.1-1.3-0.3-1.9s-0.5-1.1-0.9-1.6s-0.9-0.8-1.4-1.1c-0.5-0.3-1.1-0.4-1.8-0.4c-0.7,0-1.3,0.1-1.8,0.4s-1,0.7-1.4,1.1
					c-0.4,0.5-0.7,1-0.9,1.6S244.8,27.9,244.8,28.5z"/>
			</g>
			<g>
				<path class="st0" d="M257.6,24.4v9.7h-0.8V22.9h0.6l7.9,9.9v-9.9h0.8v11.2h-0.7L257.6,24.4z"/>
			</g>
			<g>
				<path class="st0" d="M267.8,34.1l4.8-11.2h0.7l4.8,11.2h-0.9l-1.6-3.7h-5.4l-1.6,3.7H267.8z M272.9,23.9l-2.5,5.9h4.9
					L272.9,23.9z"/>
			</g>
			<g>
				<path class="st0" d="M279.8,34.1V22.9h0.8v10.5h6.7v0.7H279.8z"/>
			</g>
			<g>
				<path class="st0" d="M296.6,33.4v0.7h-7.5V22.9h7.3v0.7h-6.5V28h5.7v0.7h-5.7v4.7C289.9,33.4,296.6,33.4,296.6,33.4z"/>
			</g>
			<g>
				<path class="st0" d="M99.6,61.9V45.5h6.3c1.4,0,2.6,0.2,3.6,0.6s1.9,1,2.6,1.8c0.7,0.7,1.2,1.6,1.6,2.6s0.5,2.1,0.5,3.2
					c0,1.2-0.2,2.4-0.6,3.4s-1,1.9-1.7,2.6c-0.7,0.7-1.6,1.3-2.6,1.7s-2.2,0.6-3.4,0.6h-6.3V61.9z M109.7,53.7
					c0-0.6-0.1-1.2-0.3-1.7c-0.2-0.5-0.4-1-0.7-1.3c-0.3-0.4-0.7-0.7-1.2-0.9c-0.5-0.2-1-0.3-1.6-0.3h-1.8v8.6h1.8
					c0.6,0,1.1-0.1,1.6-0.3s0.9-0.5,1.2-0.9s0.6-0.8,0.7-1.4C109.6,54.9,109.7,54.3,109.7,53.7z"/>
			</g>
			<g>
				<path class="st0" d="M128.9,58v3.9h-11.7V45.5h11.5v3.9h-7v2.3h6v3.7h-6V58H128.9z"/>
			</g>
			<g>
				<path class="st0" d="M141.8,50.9c-0.5-0.3-0.9-0.5-1.4-0.7c-0.4-0.2-0.9-0.4-1.4-0.5c-0.5-0.2-1-0.2-1.5-0.2
					c-0.4,0-0.7,0.1-1,0.2c-0.2,0.1-0.4,0.3-0.4,0.6c0,0.2,0.1,0.4,0.2,0.5c0.1,0.1,0.3,0.3,0.6,0.4s0.6,0.2,1,0.3
					c0.4,0.1,0.8,0.2,1.3,0.4c0.8,0.2,1.4,0.5,2,0.8s1.1,0.6,1.6,1c0.4,0.4,0.8,0.8,1,1.4s0.3,1.2,0.3,2c0,1-0.2,1.8-0.5,2.5
					s-0.8,1.2-1.4,1.6c-0.6,0.4-1.3,0.7-2,0.9s-1.5,0.3-2.3,0.3c-0.6,0-1.2,0-1.9-0.1s-1.3-0.2-1.9-0.4c-0.6-0.2-1.2-0.4-1.8-0.6
					c-0.6-0.2-1.1-0.5-1.6-0.8l1.9-4c0.5,0.3,1.1,0.6,1.7,0.9c0.5,0.2,1.1,0.4,1.7,0.6c0.6,0.2,1.3,0.3,1.9,0.3c0.5,0,0.8-0.1,1-0.2
					c0.2-0.1,0.3-0.3,0.3-0.5s-0.1-0.4-0.3-0.6c-0.2-0.2-0.5-0.3-0.8-0.4c-0.3-0.1-0.7-0.2-1.2-0.4c-0.4-0.1-0.9-0.3-1.4-0.4
					c-0.7-0.2-1.4-0.5-1.9-0.8s-1-0.6-1.3-1s-0.6-0.8-0.8-1.2c-0.2-0.5-0.2-1-0.2-1.6c0-0.9,0.2-1.7,0.5-2.4
					c0.3-0.7,0.8-1.3,1.4-1.7c0.6-0.5,1.2-0.8,2-1.1c0.7-0.2,1.5-0.4,2.3-0.4c0.6,0,1.2,0.1,1.8,0.2s1.1,0.3,1.7,0.4
					c0.5,0.2,1,0.4,1.5,0.6s0.9,0.4,1.2,0.6L141.8,50.9z"/>
			</g>
			<g>
				<path class="st0" d="M152.9,61.9V45.5h11.3v3.9h-6.8v2.7h5.5v3.7h-5.5v6.1H152.9z"/>
			</g>
			<g>
				<path class="st0" d="M166.8,61.9V45.5h4.5v16.4H166.8z"/>
			</g>
			<g>
				<path class="st0" d="M179.6,53.8v8.1h-4.5V45.5h3.5l6.6,8.4v-8.4h4.5v16.4h-3.6L179.6,53.8z"/>
			</g>
			<g>
				<path class="st0" d="M191.9,61.9l6.1-16.4h3.7l6.1,16.4H203l-1-3.2h-4.4l-1,3.2H191.9z M199.9,50.2l-1.5,5.5h3L199.9,50.2z"/>
			</g>
			<g>
				<path class="st0" d="M214.5,53.8v8.1H210V45.5h3.5l6.6,8.4v-8.4h4.5v16.4H221L214.5,53.8z"/>
			</g>
			<g>
				<path class="st0" d="M227.5,53.6c0-1,0.2-2,0.5-3c0.4-1,0.9-1.8,1.6-2.6c0.7-0.8,1.5-1.4,2.5-1.9s2.1-0.7,3.3-0.7
					c1.5,0,2.7,0.3,3.8,1s1.9,1.5,2.4,2.6l-3.4,2.5c-0.1-0.4-0.3-0.7-0.5-1s-0.5-0.5-0.7-0.6c-0.3-0.2-0.5-0.3-0.8-0.3
					c-0.3-0.1-0.6-0.1-0.8-0.1c-0.6,0-1.1,0.1-1.5,0.4s-0.7,0.6-1,1s-0.5,0.9-0.6,1.4s-0.2,1-0.2,1.5c0,0.6,0.1,1.1,0.2,1.6
					s0.4,1,0.6,1.4c0.3,0.4,0.6,0.7,1,1c0.4,0.2,0.9,0.4,1.4,0.4c0.3,0,0.5,0,0.8-0.1s0.5-0.2,0.8-0.3c0.3-0.2,0.5-0.4,0.7-0.6
					c0.2-0.3,0.4-0.6,0.5-0.9l3.7,2.2c-0.2,0.6-0.6,1.1-1.1,1.6s-1,0.9-1.6,1.2s-1.2,0.6-1.9,0.7c-0.7,0.2-1.3,0.3-2,0.3
					c-1.1,0-2.2-0.2-3.1-0.7c-1-0.5-1.8-1.1-2.5-1.9c-0.7-0.8-1.2-1.7-1.6-2.7C227.7,55.6,227.5,54.6,227.5,53.6z"/>
			</g>
			<g>
				<path class="st0" d="M244.5,61.9V45.5h4.5v16.4H244.5z"/>
			</g>
			<g>
				<path class="st0" d="M264.6,58v3.9h-11.7V45.5h11.5v3.9h-7v2.3h6v3.7h-6V58H264.6z"/>
			</g>
			<g>
				<path class="st0" d="M267.6,61.9V45.5h7.5c0.8,0,1.5,0.2,2.2,0.5s1.3,0.8,1.7,1.3c0.5,0.5,0.9,1.1,1.1,1.8
					c0.3,0.7,0.4,1.4,0.4,2.1c0,1-0.2,1.8-0.6,2.7c-0.4,0.8-1,1.5-1.7,2l3.7,6h-5.1l-3.1-5H272v5H267.6z M272.2,52.9h2.8
					c0.3,0,0.5-0.2,0.8-0.5c0.2-0.3,0.4-0.7,0.4-1.3c0-0.6-0.1-1-0.4-1.3s-0.6-0.5-0.8-0.5h-2.7L272.2,52.9L272.2,52.9z"/>
			</g>
			<g>
				<path class="st0" d="M294.5,50.9c-0.5-0.3-0.9-0.5-1.4-0.7c-0.4-0.2-0.9-0.4-1.4-0.5c-0.5-0.2-1-0.2-1.5-0.2
					c-0.4,0-0.7,0.1-1,0.2c-0.2,0.1-0.4,0.3-0.4,0.6c0,0.2,0.1,0.4,0.2,0.5s0.3,0.3,0.6,0.4c0.3,0.1,0.6,0.2,1,0.3
					c0.4,0.1,0.8,0.2,1.3,0.4c0.8,0.2,1.4,0.5,2.1,0.8c0.6,0.3,1.1,0.6,1.6,1c0.4,0.4,0.8,0.8,1,1.4c0.2,0.5,0.3,1.2,0.3,2
					c0,1-0.2,1.8-0.5,2.5c-0.4,0.7-0.8,1.2-1.4,1.6c-0.6,0.4-1.3,0.7-2,0.9s-1.5,0.3-2.3,0.3c-0.6,0-1.2,0-1.9-0.1
					c-0.6-0.1-1.3-0.2-1.9-0.4s-1.2-0.4-1.8-0.6c-0.6-0.2-1.1-0.5-1.6-0.8l1.9-4c0.5,0.3,1.1,0.6,1.7,0.9c0.5,0.2,1.1,0.4,1.7,0.6
					c0.6,0.2,1.3,0.3,1.9,0.3c0.5,0,0.8-0.1,1-0.2c0.2-0.1,0.3-0.3,0.3-0.5s-0.1-0.4-0.3-0.6c-0.2-0.2-0.5-0.3-0.8-0.4
					c-0.3-0.1-0.7-0.2-1.2-0.4c-0.4-0.1-0.9-0.3-1.4-0.4c-0.7-0.2-1.4-0.5-1.9-0.8s-1-0.6-1.3-1s-0.6-0.8-0.8-1.2
					c-0.2-0.5-0.2-1-0.2-1.6c0-0.9,0.2-1.7,0.5-2.4c0.3-0.7,0.8-1.3,1.4-1.7c0.6-0.5,1.2-0.8,2-1.1c0.7-0.2,1.5-0.4,2.3-0.4
					c0.6,0,1.2,0.1,1.8,0.2c0.6,0.1,1.1,0.3,1.7,0.4c0.5,0.2,1,0.4,1.5,0.6s0.9,0.4,1.2,0.6L294.5,50.9z"/>
			</g>
		</g>
		<g>
			<path class="st0" d="M297.6,41.7H98c-0.6,0-1.2-0.5-1.2-1.2s0.5-1.2,1.2-1.2h199.5c0.6,0,1.2,0.5,1.2,1.2S298.2,41.7,297.6,41.7z
				"/>
		</g>
	</g>
	<g>
		<g>
			<path class="st1" d="M33.8,46.6l4.8-12.4h2.3l4.7,12.4h-3l-1-2.8h-3.9l-0.9,2.8H33.8z M39.7,37.3l-1.5,4.6h2.9L39.7,37.3z"/>
		</g>
		<g>
			<path class="st1" d="M52.4,39.5v7.1h-2.9V34.2h2.2l5.8,7.3v-7.3h2.9v12.4h-2.3L52.4,39.5z"/>
		</g>
		<g>
			<path class="st1" d="M65.6,46.6V34.2H74v2.5h-5.5v2.7h4.6v2.3h-4.6v4.9H65.6z"/>
		</g>
	</g>
</g>
</svg>
