<?xml version="1.0" encoding="UTF-8"?>
<svg width="1600px" height="1080px" viewBox="0 0 1600 1080" version="1.1" xmlns="http://www.w3.org/2000/svg" xmlns:xlink="http://www.w3.org/1999/xlink">
    <!-- Generator: Sketch 51.2 (57519) - http://www.bohemiancoding.com/sketch -->
    <title>05 (4)</title>
    <desc>Created with Sketch.</desc>
    <defs>
        <rect id="path-1" x="0" y="0" width="1600" height="1080"></rect>
        <linearGradient x1="0%" y1="50.0002258%" x2="100%" y2="50.0002258%" id="linearGradient-3">
            <stop stop-color="#4FD3FD" offset="0%"></stop>
            <stop stop-color="#FFF9F4" offset="100%"></stop>
        </linearGradient>
        <linearGradient x1="1.74706585e-06%" y1="50%" x2="100%" y2="50%" id="linearGradient-4">
            <stop stop-color="#63D3FD" offset="0%"></stop>
            <stop stop-color="#FFF9F4" offset="100%"></stop>
        </linearGradient>
        <linearGradient x1="0%" y1="50.0003731%" x2="100%" y2="50.0003731%" id="linearGradient-5">
            <stop stop-color="#63D3FD" offset="0%"></stop>
            <stop stop-color="#FFF9F4" offset="100%"></stop>
        </linearGradient>
        <linearGradient x1="0%" y1="50.0006937%" x2="100%" y2="50.0006937%" id="linearGradient-6">
            <stop stop-color="#3DC7FD" offset="15.43%"></stop>
            <stop stop-color="#FFECF4" offset="100%"></stop>
        </linearGradient>
        <linearGradient x1="151.322066%" y1="83.1890363%" x2="-50.872314%" y2="16.9586086%" id="linearGradient-7">
            <stop stop-color="#FE4A4F" offset="0%"></stop>
            <stop stop-color="#FEA94F" offset="100%"></stop>
        </linearGradient>
        <linearGradient x1="0%" y1="50%" x2="100%" y2="50%" id="linearGradient-8">
            <stop stop-color="#FFFF00" offset="0%"></stop>
            <stop stop-color="#FFFFFF" offset="100%"></stop>
        </linearGradient>
        <linearGradient x1="-0.00214185393%" y1="50%" x2="100%" y2="50%" id="linearGradient-9">
            <stop stop-color="#C9E2FF" offset="0%"></stop>
            <stop stop-color="#F6FAFF" stop-opacity="0.4282" offset="57.18%"></stop>
            <stop stop-color="#FFFFFF" stop-opacity="0" offset="100%"></stop>
            <stop stop-color="#FFFFFF" stop-opacity="0" offset="100%"></stop>
        </linearGradient>
        <linearGradient x1="50.051511%" y1="0.13123141%" x2="50.051511%" y2="100.202736%" id="linearGradient-10">
            <stop stop-color="#EA278B" offset="0%"></stop>
            <stop stop-color="#DB57B5" offset="99.73%"></stop>
        </linearGradient>
        <linearGradient x1="43.36%" y1="-8148.97%" x2="43.36%" y2="262.04%" id="linearGradient-11">
            <stop stop-color="#EA278B" offset="0%"></stop>
            <stop stop-color="#DB57B5" offset="99.73%"></stop>
        </linearGradient>
        <linearGradient x1="99.9040919%" y1="49.9979301%" x2="-0.0133878407%" y2="49.9979301%" id="linearGradient-12">
            <stop stop-color="#EA278B" offset="0%"></stop>
            <stop stop-color="#DB57B5" offset="99.73%"></stop>
        </linearGradient>
        <linearGradient x1="0.121126761%" y1="49.8979087%" x2="100.104851%" y2="49.8979087%" id="linearGradient-13">
            <stop stop-color="#31E0FD" offset="35.64%"></stop>
            <stop stop-color="#706AFB" offset="100%"></stop>
        </linearGradient>
        <linearGradient x1="99.8500466%" y1="50.2336955%" x2="-0.0176906747%" y2="50.2336955%" id="linearGradient-14">
            <stop stop-color="#31E0FD" offset="35.64%"></stop>
            <stop stop-color="#706AFB" offset="100%"></stop>
        </linearGradient>
        <linearGradient x1="99.9521701%" y1="49.9895833%" x2="-0.0981880658%" y2="49.9895833%" id="linearGradient-15">
            <stop stop-color="#31E0FD" offset="35.64%"></stop>
            <stop stop-color="#706AFB" offset="100%"></stop>
        </linearGradient>
        <linearGradient x1="0.353146853%" y1="50.0096354%" x2="100.06993%" y2="50.0096354%" id="linearGradient-16">
            <stop stop-color="#A60000" offset="0%"></stop>
            <stop stop-color="#B32F1F" offset="100%"></stop>
        </linearGradient>
        <linearGradient x1="-0.127192087%" y1="49.9587343%" x2="99.9610324%" y2="49.9587343%" id="linearGradient-17">
            <stop stop-color="#A60000" offset="0%"></stop>
            <stop stop-color="#B32F1F" offset="100%"></stop>
        </linearGradient>
        <linearGradient x1="50%" y1="100%" x2="50%" y2="0%" id="linearGradient-18">
            <stop stop-color="#FE9533" offset="0%"></stop>
            <stop stop-color="#EA404F" offset="100%"></stop>
        </linearGradient>
        <linearGradient x1="-0.064838256%" y1="49.9440678%" x2="99.9566807%" y2="49.9440678%" id="linearGradient-19">
            <stop stop-color="#FE9533" offset="0%"></stop>
            <stop stop-color="#EA404F" offset="100%"></stop>
        </linearGradient>
        <linearGradient x1="89.5542897%" y1="118.131961%" x2="10.4673699%" y2="-18.0200969%" id="linearGradient-20">
            <stop stop-color="#CCD8CF" offset="0%"></stop>
            <stop stop-color="#FFF5E0" offset="65.69%"></stop>
        </linearGradient>
        <linearGradient x1="0%" y1="50%" x2="100%" y2="50%" id="linearGradient-21">
            <stop stop-color="#FE9533" offset="0%"></stop>
            <stop stop-color="#EA404F" offset="100%"></stop>
        </linearGradient>
    </defs>
    <g id="Page-1" stroke="none" stroke-width="1" fill="none" fill-rule="evenodd">
        <g id="Sign-In-Copy">
            <g id="05-(4)">
                <mask id="mask-2" fill="white">
                    <use xlink:href="#path-1"></use>
                </mask>
                <use id="Mask" fill="#FFFFFF" fill-rule="nonzero" xlink:href="#path-1"></use>
                <g mask="url(#mask-2)">
                    <g transform="translate(48.000000, -141.000000)">
                        <path d="M891.1,752 C891.1,752 897.5,761 897.5,762.2 C897.5,763.5 888.5,767.3 887.3,767.3 C886.1,767.3 883.2,755.4 883.2,755.4 L891.1,752 Z" id="Shape" fill="#FFC692" fill-rule="nonzero"></path>
                        <g id="Group" stroke-width="1" fill="none" fill-rule="evenodd">
                            <path d="M11,855 C11,855 32,979 183.5,961.5 C226.6,956.5 344.5,953.5 388.5,942.5 C432.5,931.5 521.5,899.5 547.5,901.5 C573.5,903.5 584.5,880.5 584.5,880.5 L357.5,749.5 L11,855 Z" id="Shape" fill="#EDF8FC" fill-rule="nonzero"></path>
                            <g transform="translate(458.000000, 0.000000)" fill-rule="nonzero" id="Shape">
                                <path d="M1261,1284 L1167,123 L639.3,141 C583,123.3 436.6,102.6 348,278 C304.6,363.8 289,411 242,470 C195,529 71,529 46,538 C21,547 24,577 24,577 L7,584 C7,584 4.2,577.7 1.1,569.6 L0,925 C0,925 30.3,934.9 72.7,950.7 C95.4,959.1 139.2,1008.8 166,1020 C191.2,1030.6 199.5,1002.5 223.6,1014.5 C258.7,1031.9 271.2,1071.2 292,1089 C314.8,1108.5 350.3,1110.2 362.2,1134.3 C375.2,1160.8 382.5,1189 386.1,1216.3 C389.5,1241.9 394.2,1275.8 399,1310.4 C418.6,1450.9 453.4,1576.9 580,1641 C829,1767 1122.3,1686.9 1240,1551 C1254.5,1534.2 1261,1284 1261,1284 Z" fill="url(#linearGradient-3)"></path>
                                <path d="M24,577 C24,577 21,547 46,538 C71,529 195,529 242,470 C289,411 274,304 360,261 C425.6,228.2 498,151.8 563,116 L582,135 C582,135 315,227 265,297 C215,367 162,468 79,498 C-4,528 1,556 1,556 L1.1,561.1 L1.1,569.6 C4.3,577.7 7,584 7,584 L24,577 Z" fill="url(#linearGradient-4)"></path>
                                <path d="M24,577 C24,577 21,547 46,538 C71,529 195,529 242,470 C289,411 301.1,361.7 364,289 C504,127 870,135 949,132 C949,132 753.4,87.6 712,83 C591.4,69.6 525.9,67.4 417,140 C368.7,172.2 283.9,265.4 270,269 C237.4,277.6 225.2,356.5 203.2,387.4 C151,461 181,363 145,391 C121.6,409.2 120.4,475.4 94,485 C76.6,491.3 61.5,473.6 53,484 C4,544 1,556 1,556 L1.1,561.1 L1.1,569.6 C4.3,577.7 7,584 7,584 L24,577 Z" fill="url(#linearGradient-5)"></path>
                            </g>
                            <path d="M189,920 C189,920 215,919 216,927 C217,935 214,939 207,939 C200,939 188,947 171,946 C154,945 132,937 115,936 C98,935 62.3,935.3 62.3,935.3 C62.3,935.3 33,908.3 31,902.6 C29,896.9 72,896.9 88,902.9 C104,908.9 104,918.9 122,912.9 C140,906.9 151.3,902.6 167.7,909.2 C184,916 189,920 189,920 Z" id="Shape" fill="#D0ECF4" fill-rule="nonzero"></path>
                            <path d="M11,858 C6.7,854.4 -18,716 27,687 C56.1,668.2 22.1,619.3 56,615 C81.2,611.8 51.2,601.9 73,570.2 C94.8,538.5 91.3,548.8 102.2,545.7 C113.1,542.6 126,548.8 136.8,548.8 C147.6,548.8 155.1,544.7 166,530.4 C176.9,516.1 189.1,496.7 209.5,525.3 C217.5,536.6 208.1,552.9 221.7,557 C235.3,561.1 257.7,577.4 265.9,589.7 C274.1,602 282.9,618.3 289.7,620.3 C296.5,622.3 326.4,609.1 330.5,597.8 C334.6,586.5 342.7,575.3 350.9,573.3 C359.1,571.3 380.8,560 386.9,552.9 C393,545.8 393,537.6 404.6,543.7 C416.1,549.8 405.3,572.3 428.4,558 C451.5,543.7 448.3,605.9 455.1,613 C461.9,620.1 486.8,587.6 497,589.6 C507.2,591.6 511.9,584.5 523.5,591.6 C535,598.7 545.2,622.2 561.5,623.3 C577.8,624.3 548.6,614.1 556.7,625.3 C564.9,636.5 558.7,663.1 558.7,663.1 L568,888 L79,871 C48.8,870.4 11,858 11,858 Z" id="Shape" fill="#DEF3FC" fill-rule="nonzero"></path>
                            <path d="M226.8,621.8 C224.8,633.8 216.8,641.8 222.8,645.8 C228.8,649.8 230.8,643.8 232.8,639.8 C234.8,635.8 242.8,631.8 244.8,631.8 C246.8,631.8 250.8,631.8 248.8,625.8 C246.8,619.8 244.8,611.8 246.8,607.8 C248.8,603.8 260.8,579.8 278.9,603.8 C278.9,603.8 278.9,617.8 272.9,627.8 C266.9,637.8 284.9,639.8 286.9,643.8 C288.9,647.8 290.9,659.8 290.9,659.8 C290.9,659.8 306.9,647.8 313,645.8 C319,643.8 319,629.8 317,627.8 C315,625.8 311,621.8 313,617.8 C315,613.8 321,597.8 329,599.8 C337,601.8 345,613.8 345,617.8 C345,621.8 349,625.8 347,629.8 C345,633.8 341,639.8 341,639.8 C341,639.8 353,637.8 355,625.8 C357,613.8 355,609.8 353,605.8 C351,601.8 349,603.8 353,597.8 C357,591.8 363,577.8 373.1,583.8 C383.2,589.8 381.1,603.8 381.1,603.8 C381.1,603.8 379.1,613.8 379.1,619.8 C379.1,625.8 383.1,629.8 393.1,633.8 C403.1,637.8 407.1,637.8 407.1,637.8 C407.1,637.8 415.1,633.8 417.1,631.8 C419.1,629.8 423.1,619.8 419.1,617.8 C415.1,615.8 411.1,613.8 413.1,611.8 C415.1,609.8 415.1,615.8 415.1,609.8 C415.1,603.8 419.1,587.8 425.1,587.8 C431.1,587.8 443.1,595.8 439.1,607.8 C439.1,607.8 443.1,613.8 441.1,615.8 C439.1,617.8 437.1,621.8 439.1,629.8 C441.1,637.8 459.2,639.8 459.2,639.8 C459.2,639.8 479.3,621.8 489.3,627.8 C499.3,633.8 519.4,633.8 523.4,631.8 C527.4,629.8 539.4,631.8 541.4,621.8 C543.4,611.8 533.4,609.8 535.4,603.8 C537.4,597.8 531.4,587.8 539.4,585.8 C547.4,583.8 555.4,581.8 561.5,587.8 C567.5,593.8 563.5,599.8 561.5,605.8 C559.5,611.8 551.5,609.8 557.5,615.8 C563.5,621.8 563.5,623.8 571.5,627.8 C579.5,631.8 554.8,636 556.8,638 C558.8,640 522.8,636 530.8,672 C538.8,708 510.8,727 510.8,727 C510.8,727 496.8,733 494.8,735 C492.8,737 552.8,724 552.8,726 C552.8,728 533.8,729 529.8,733 C525.8,737 524.8,738 530.8,758 C536.8,778 520.8,823 520.8,829 C520.8,835 538.8,847 542.8,855 C546.8,863 548.8,861 548.8,861 L577.5,880 C577.5,880 579.5,888 575.5,890 C571.5,892 569.5,900 563.5,892 C557.5,884 555.5,878 551.5,882 C547.5,886 513.4,884 513.4,884 L288.6,900.6 C263.4,902.5 241.7,883.3 240.4,858.1 C236.6,775.9 228.3,612.8 226.8,621.8 Z" id="Shape" fill="#B9DDEF" fill-rule="nonzero"></path>
                            <path d="M306,614.9 C306,614.9 303.1,601.7 292.8,605.4 C282.5,609.1 275.9,617.9 278.1,622.3 C280.3,626.7 285.5,633.3 285.5,633.3 L306,614.9 Z" id="Shape" fill="#A6C7E2" fill-rule="nonzero"></path>
                            <g transform="translate(199.000000, 582.000000)" fill="#B9DDEF" fill-rule="nonzero" id="Shape">
                                <path d="M32.5,103.5 L24.6,153.3 C24.6,153.3 32.5,156.3 35.5,163.4 C38.5,170.5 37.4,172.3 37.4,172.3 C37.4,172.3 36.3,174.1 32.9,171.7 C29.5,169.3 28.2,163.4 28.2,163.4 C28.2,163.4 26.5,158.2 25.8,159.2 C25.5,159.7 27.8,163.9 27.1,165.1 C26.5,166.2 25.2,164.1 24.2,162.2 C23.4,160.7 22.4,159.4 21.3,158.2 C20.4,157.2 19.4,155.9 19,154.4 C18.4,151.4 22.9,99.2 22.9,99.2 L33.2,103.9 L32.5,103.5 Z"></path>
                                <path d="M21.6,50.2 C21.6,50.2 0.6,28 10.3,17.3 C20,6.6 26.1,5.7 29.7,9.6 C33.2,13.5 33.2,16.4 33.2,16.4 C33.2,16.4 26.2,14.5 23.5,18.3 C20.8,22.1 18.2,27 18.2,28.9 C18.3,30.8 23.2,45.3 21.6,50.2 Z"></path>
                                <path d="M6.1,291.1 L4,299.6 C4,299.6 10.3,303.5 13.8,301.1 L13.8,294.2 L6.1,291.1 Z"></path>
                                <path d="M12.4,162.4 C12.4,162.4 15.9,195.9 15.2,203.5 C14.5,211.1 6.8,247.6 6.1,252.9 C5.4,258.2 0.5,283.8 3.3,290.9 C5.6,296.6 13.3,295.7 16.2,295.2 C16.9,295.1 17.4,294.5 17.6,293.8 C19.8,284.2 35.1,219 38.4,214.1 C41.9,208.8 25.1,170.7 25.1,170.7 L12.4,162.4 Z"></path>
                                <g transform="translate(15.000000, 36.000000)">
                                    <path d="M21.1,26.3 C20.3,24.9 19.4,23.1 18.7,21.5 C17.1,18.1 17.1,16.3 16.3,12.9 C16.2,12.3 16.1,11.6 16.1,11 C16.1,11 13,4.3 9.8,5.2 C8,5.7 5.6,4.2 3.9,2.9 C4,3.1 4.1,3.3 4.1,3.5 C4.7,5.4 4.4,8.8 4.2,10.4 C4.1,10.9 4.3,11.4 4.6,11.8 C5.2,12.7 6.1,14.8 4.9,19 C4,22.4 2.8,23.6 2,24 C1.3,24.3 0.9,25 0.9,25.8 L0.9,27.3 C0.9,28.4 1.7,29.3 2.8,29.3 L19.4,29.3 C20.9,29.2 21.8,27.6 21.1,26.3 Z"></path>
                                    <path d="M11.4,9.2 C14.6,8.3 16.2,11 16.2,11 C16.3,7.8 18,4.3 18,4.3 C18,4.3 18.8,1.7 20.4,0.9 C20.4,0.9 16.4,1.8 12.4,0.9 C8.4,5.65658631e-14 4.5,0.7 4.5,0.7 L2.9,0.8 C3.4,1.4 3.8,2.1 4.1,2.8 C5.7,4.2 9.5,9.7 11.4,9.2 Z"></path>
                                </g>
                                <path d="M3.3,298 C3.3,298 12.4,301.9 15.2,300.3 L28.5,308.8 C28.5,308.8 30.6,311.9 28.5,312.7 C26.4,313.5 8.1,309.6 3.9,308.8 C4,308.8 -3,309.6 3.3,298 Z"></path>
                                <path d="M30.4,9.7 C30.4,9.7 38.4,34.5 36.4,40.9 C34.4,47.4 17.3,36.6 17.3,36.6 L15.3,9.7 L30.4,9.7 Z"></path>
                                <path d="M20.2,48.4 C20.2,48.4 -3.7,23.6 7.3,11.8 C18.3,-5.51780843e-14 25.4,-1.1 29.4,3.2 C33.4,7.5 33.4,10.7 33.4,10.7 C33.4,10.7 25.4,8.5 22.3,12.9 C19.3,17.2 17.3,22.6 17.3,24.7 C17.3,26.8 22,43 20.2,48.4 Z"></path>
                                <path d="M48.6,118 L32,103.7 C32,103.7 32.1,142.6 30.4,147.3 C28.6,152 18.3,150 17.6,148.8 C12.6,140.4 12.8,88.3 15.8,80.7 C18.8,73.1 39.9,99.1 39.9,99.1 L48.6,118 Z"></path>
                                <polygon points="7 248.1 6.2 252.2 27.5 252.8 29.2 245.8"></polygon>
                                <polygon points="35.7 246.7 35.9 253.1 57.9 252.8 58.1 245.8"></polygon>
                                <path d="M8.5,153 C8.5,153 7.2,161 49.1,157.4 C49.1,157.4 48.2,146.8 48.2,143.9 C48.2,141 12.1,147.8 12.1,147.8 L8.5,153 Z"></path>
                                <path d="M15.6,82.1 C15.6,82.1 27,105.3 47.3,117.9 L47.3,110.2 L20.9,82.2 L16,79.3 L15.6,82.1 Z"></path>
                                <path d="M41.2,296.5 L41.2,304.2 C41.2,304.2 45.4,306.5 49.6,304.2 L49.6,295 L41.2,296.5 Z"></path>
                                <path d="M42.3,144 C45.5,145.2 47.8,148.4 48.3,152.1 C50.2,167.3 55.2,207.4 57.4,214.8 C59.7,222.2 57.4,271 56.4,289.9 C56.1,294.8 52.7,298.8 48.3,299.2 C48,299.2 47.6,299.3 47.3,299.3 C42.4,299.6 38.3,295.5 37.9,290.2 C36.9,276.8 34.9,247.4 36.2,229.5 C36.3,227.9 36.1,226.3 35.5,224.9 C32.5,217.2 22.4,191.9 13.8,181.6 C12.9,180.5 12.2,179.2 11.8,177.7 C10.4,172.4 7.4,159.3 9,146.3 C10.5,133.3 32.1,140 42.3,144 Z"></path>
                                <path d="M39.8,302.6 C39.8,302.6 45.4,305.7 50.3,302.6 C50.3,302.6 65,305.7 66.4,307.2 C67.8,308.7 67.8,310.3 67.1,311.1 C66.4,311.9 58.7,311.9 53.8,312.6 C48.9,313.4 41.2,312.6 41.2,312.6 C41.2,312.6 35.6,312.7 39.8,302.6 Z"></path>
                                <path d="M21.1,58.1 C24.2,58.6 29,59.4 32.2,59.5 C34.5,59.6 36.6,61.1 37.7,63.3 C40.8,69.8 46.3,82 46.9,87.6 C47.5,94.7 47.6,135.2 49.8,144.5 C50.2,146.1 50.1,147.7 49.5,149.2 C49.3,149.5 49.2,149.8 49,150 C48.4,150.7 28,159.7 12.2,155 C9.5,154.2 7.5,151.5 7.4,148.4 C6.9,137 5.7,108.2 6.2,101.5 C6.8,94.2 6.4,83 6.2,79.9 C6.2,79.3 6.2,78.7 6.3,78.1 C6.8,75.3 8.9,67.2 15.5,60 C17,58.4 19,57.7 21.1,58.1 Z"></path>
                            </g>
                            <g transform="translate(44.000000, 594.000000)" fill-rule="nonzero">
                                <path d="M21.3,295.1 L17.1,299.4 C17.1,299.4 25.6,307.9 29.6,306.7 L35.3,300.5 L21.3,295.1 Z" id="Shape" fill="#F2F1F2"></path>
                                <path d="M129.2,317.5 L131.5,322 C131.5,322 141.1,314.7 142.8,311.8 L138.3,306.7 L129.8,316.9 L129.2,317.5 Z" id="Shape" fill="#FFFFFF"></path>
                                <path d="M68.1,168.9 C68.1,168.9 59.6,214.1 58.5,219.7 C57.4,225.3 20.6,288.6 19.4,289.8 C18.2,291 27.3,307.9 37.5,301.7 C47.7,295.5 75.4,236.7 79.4,233.9 C83.4,231.1 90.2,192.1 90.2,192.1 L68.1,168.9 Z" id="Shape" fill="#83ACD8"></path>
                                <path d="M94.5,34 L77.2,22.4 C77.3,29.6 74.3,40.1 74.3,40.1 C82,38.7 82,49.2 91.8,51.5 C96.3,52.5 96.1,50 97.8,49.3 L97.4,49 C95.5,47.5 93.9,45.7 92.8,43.5 C92.1,42.1 91.6,40.7 92.2,39.2 L94.5,34" id="Shape" fill="#E0C0AA"></path>
                                <path d="M73.7,26 C73.7,26 74.7,28.1 76.2,28.1 C77.8,28.1 79.5,32.7 82.4,34.6 C85.3,36.5 87.7,35.7 87.7,35.7 L94.1,34.8 L96.4,16.4 L75.8,25.6 L73.7,26 Z" id="Shape" fill="#ECC9B1"></path>
                                <g transform="translate(59.000000, 124.000000)" fill="#A6C7E2" id="Shape">
                                    <path d="M83.2,182.8 C83.2,182.8 60,117.3 60.6,110.5 C61,105.3 51.6,66.6 47.1,48.5 C45.6,42.7 45,36.7 45.1,30.7 C45.3,22.8 42.4,9.6 40.8,3.7 C38.5,-4.5 15.2,6.9 6.4,7.5 L25.6,20.1 C25.6,20.1 13.7,20.1 13.7,25.7 C13.7,31.3 17.1,44.3 22.8,52.8 C28.5,61.3 31.9,63.5 32.4,72.6 C33,81.6 34.7,106.5 36.9,113.3 C39.2,120.1 44.3,134.8 47.7,142.1 C51.1,149.4 62.4,169.8 64.7,176.6 C67,183.4 69.8,188.5 72.6,190.7 C75.4,192.9 74.3,192.4 74.3,192.4 L74.6,192.5 C77.1,190.2 80.1,186.9 83.2,182.8 Z"></path>
                                    <path d="M72.5,190.7 C69.7,188.4 70.8,180.5 68.5,173.8 C66.2,167 53.8,145.6 50.4,138.2 C47,130.9 49.3,114.5 47,107.7 C44.7,100.9 38.5,79.5 37.9,70.4 C37.3,61.4 31.7,58 26,49.5 C20.3,41 29.4,34.2 29.4,28.6 C29.4,23 25.4,20.1 25.4,20.1 L6.2,7.5 C4.7,7.6 3.8,7.7 3.8,7.7 L3.2,8.3 C3.2,8.3 -5.3,32 9.4,49.5 C24.1,67 17.3,67.6 32,94.7 C32,94.7 34.8,107.7 36,120.1 C37.1,132.5 63.2,192.4 66,195.2 C67.6,196.8 70.6,195.6 74.2,192.5 L73.9,192.4 C74.2,192.4 75.3,193 72.5,190.7 Z"></path>
                                    <path d="M72.5,190.7 C69.7,188.4 70.8,180.5 68.5,173.8 C66.2,167 53.8,145.6 50.4,138.2 C47,130.9 49.3,114.5 47,107.7 C44.7,100.9 38.5,79.5 37.9,70.4 C37.3,61.4 31.7,58 26,49.5 C20.3,41 29.4,34.2 29.4,28.6 C29.4,23 25.4,20.1 25.4,20.1 L6.2,7.5 C4.7,7.6 3.8,7.7 3.8,7.7 L3.2,8.3 C3.2,8.3 -5.3,32 9.4,49.5 C24.1,67 17.3,67.6 32,94.7 C32,94.7 34.8,107.7 36,120.1 C37.1,132.5 63.2,192.4 66,195.2 C67.6,196.8 70.6,195.6 74.2,192.5 L73.9,192.4 C74.2,192.4 75.3,193 72.5,190.7 Z"></path>
                                </g>
                                <g transform="translate(59.000000, 37.000000)" fill="#79A9D8" id="Shape">
                                    <path d="M39.3,56.1 L55.5,46.6 L49.8,17.3 C47,13.6 43.5,10.4 39.5,8 C33,4.1 23.4,-0.9 19,1 L17.1,3.7 L15.4,4.3 L14.3,4.3 L4.1,9.4 C4.1,9.4 21.1,46.1 23.9,54 C26.7,61.9 17.7,69.8 19.4,73.8 C21.1,77.8 12,78.3 9.8,86.2 C7.5,94.1 20.6,104.8 25.9,107.4 L22.9,107.8 C34.5,107.4 42.7,104.8 45.5,101.4 C55.7,89 45.8,39.9 43.8,35.3 C35.4,16.2 39.3,56.1 39.3,56.1 Z"></path>
                                    <path d="M26.7,86.2 C29,78.3 21,77.7 19.3,73.8 C17.6,69.8 26.7,61.9 23.8,54 C21,46.1 6.3,12.2 6.3,12.2 L19.3,5.2 L19.9,4.9 L20.5,4.3 L19,1 C18.5,1.2 18.1,1.5 17.8,1.9 L0.7,10.5 C0.7,10.5 6.4,58.5 2.4,75.5 C-1.6,92.4 -0.4,95.8 8.6,104.3 C11.6,107.1 17,108.1 22.8,107.9 L25.8,107.5 C20.4,104.8 24.4,94.1 26.7,86.2 Z"></path>
                                    <path d="M26.7,86.2 C29,78.3 22.2,58 20.5,54 C18.8,50 26.7,61.9 23.9,54 C21.1,46.1 6.4,12.2 6.4,12.2 L19.4,5.2 L20,4.9 L20.6,4.3 L19,1 C18.5,1.2 18.1,1.5 17.8,1.9 L0.7,10.5 C0.7,10.5 6.4,58.5 2.4,75.5 C-1.6,92.4 -0.4,95.8 8.6,104.3 C11.6,107.1 17,108.1 22.8,107.9 L25.8,107.5 C20.4,104.8 24.4,94.1 26.7,86.2 Z"></path>
                                </g>
                                <path d="M2.5,311.3 L1.4,310.7 C1.4,310.7 2,314.7 1.4,315.2 C0.8,315.8 0.8,315.8 0.8,315.8 C0.8,315.8 11,316.9 13.3,318.6 C15.6,320.3 15.6,320.3 15.6,320.3 L17.3,318 C17.3,318 25.2,320.8 26.4,323.1 C27.5,325.4 42.2,331 57,328.2 C57,328.2 58.7,328.2 58.7,324.8 C58.5,321.5 2.5,311.3 2.5,311.3 Z" id="Shape" fill="#8FC5DB"></path>
                                <path d="M15.5,297.2 C15.5,297.2 26.8,307.9 33.6,306.8 C33.6,306.8 35.9,310.8 38.7,314.1 C41.5,317.5 54.5,318.1 57.9,321.4 C61.3,324.8 57.9,327 56.2,327 C54.5,327 37,328.1 27.9,321.9 C18.8,315.7 2.4,311.2 2.4,311.2 C2.4,311.2 4.2,296.6 15.5,297.2 Z" id="Shape" fill="#6FB4DB"></path>
                                <path d="M74.9,35.6 C74.9,35.6 92.4,40.1 93,39.6 L94.4,42.8 C94.4,42.8 89.5,44.9 73.4,40.5 L74.9,35.6 Z" id="Shape" fill="#79A9D8"></path>
                                <g transform="translate(52.000000, 47.000000)" fill="#79A9D8" id="Shape">
                                    <path d="M3.7,10.6 C3.1,18.5 9.9,24.2 11.1,29.2 C12.2,34.3 15.5,46.7 19.6,49 C23.7,51.3 23,50.1 23,50.1 L27.8,48.9 C30.4,47.5 33.3,45.6 36.5,42.8 C36.5,42.8 25.3,8.4 12.5,1.6 C12.7,1.8 9.3,1.4 9.4,1.6 C9.3,1.6 4.2,2.7 3.7,10.6 Z"></path>
                                    <path d="M7.6,0.5 C7.6,0.5 2.5,2.2 0.8,10.7 C-0.9,19.2 16.1,51.9 16.1,51.9 C16.1,51.9 20.4,52.8 27.7,49 L28.5,48.5 C28.5,48.5 27.9,48.5 23.8,46.2 C19.7,43.9 15.5,32.6 14.3,27.6 C13.1,22.6 4.7,18 5.2,10.1 C5.8,2.2 13.1,2.2 13.1,2.2 C13,2 12.5,1.9 12.3,1.7 C10.9,0.8 9.2,0.3 7.6,0.5 Z"></path>
                                </g>
                                <path d="M79,36.6 C79,36.6 77.7,37.3 78.3,39 C78.9,40.7 78.9,41.8 78.9,41.8 L73.2,40.7 L74.9,35.6 L79,36.6 Z" id="Shape" fill="#79A9D8"></path>
                                <path d="M19.4,300.6 C19.4,300.6 13.7,302.3 12.6,305.7 C11.5,309.1 14.3,311.9 19.4,313.6 C24.5,315.3 30.2,318.1 31.9,319.8 C33.5,321.4 53,326.5 53.6,321 C53.7,320.3 53.4,319.7 52.9,319.2 L52.6,318.9 C52.6,318.9 39.3,314.7 34,307.3 L33.7,306.7 C33.6,306.8 28.5,307.4 19.4,300.6 Z" id="Shape" fill="#6FB4DB"></path>
                                <path d="M135.7,340.7 L134.7,341.5 C134.7,341.5 138.5,342.7 138.8,343.4 C139.1,344.1 139.1,344.2 139.1,344.2 C139.1,344.2 144.4,335.4 146.9,334.1 C149.4,332.8 149.4,332.8 149.4,332.8 L148.1,330.3 C148.1,330.3 154,324.3 156.5,324.2 C159,324.1 170.4,313.2 174,298.7 C174,298.7 174.7,297.2 171.6,295.7 C168.5,294.3 135.7,340.7 135.7,340.7 Z" id="Shape" fill="#8FC5DB"></path>
                                <path d="M128.3,323 C128.3,323 142.8,317.3 144.6,310.6 C144.6,310.6 149.1,310.2 153.4,309.1 C157.7,308 163.7,296.4 168.2,294.8 C172.7,293.2 173.3,297.2 172.6,298.7 C171.9,300.2 165.5,316.6 156.1,322.2 C146.6,327.8 135.6,340.8 135.6,340.8 C135.6,340.8 123,333 128.3,323 Z" id="Shape" fill="#6FB4DB"></path>
                                <path d="M133.1,320.9 C133.1,320.9 132.3,326.7 134.9,329.2 C137.5,331.7 141.3,330.3 144.9,326.4 C148.5,322.5 153.5,318.6 155.8,317.7 C157.9,316.9 170.7,301.4 166,298.6 C165.4,298.3 164.7,298.3 164.1,298.5 L163.7,298.7 C163.7,298.7 154.3,308.9 145.3,310.7 L144.7,310.7 C144.7,310.7 143,315.5 133.1,320.9 Z" id="Shape" fill="#6FB4DB"></path>
                                <polygon id="Shape" fill="#BFBFBF" points="145.2 109.4 145.2 110.3 145.8 110.6 145.8 110"></polygon>
                                <polygon id="Shape" fill="#BFBFBF" points="150.5 109.4 150.5 110.3 149.6 110.3"></polygon>
                                <rect id="Rectangle-path" fill="#BFBFBF" x="149.6" y="107.7" width="1" height="1"></rect>
                                <rect id="Rectangle-path" fill="#BFBFBF" x="153.9" y="107.7" width="1" height="1"></rect>
                                <polygon id="Shape" fill="#BFBFBF" points="156.5 107.7 156.5 108.6 157.4 108.6 157.1 108.2"></polygon>
                                <polygon id="Shape" fill="#BFBFBF" points="161.8 107.7 161.8 108.6 160.9 108.6"></polygon>
                                <path d="M162,108.3 L163.9,121.6 C163.9,121.6 131.5,139.7 134.4,127.3 C137.3,114.9 139.2,96.9 139.2,96.9" id="Shape" fill="#DEF3FC"></path>
                                <path d="M98,2.2 L101.8,9.8 C101.8,9.8 101,12.9 101.2,14.9 C101.4,16.9 104,21.3 104,21.3 L102.6,22.9 C102.6,22.9 104.4,32.9 103.2,34.1 C102.3,35 93.3,34.6 87.8,34.3 C84.4,34.1 81.3,32.4 79.5,29.6 C79.2,29.1 78.9,28.5 78.7,28 C77.9,25.2 74.8,26.9 73.7,26 C72.6,25.1 71.3,16.3 73.2,15.9 C75.1,15.4 73.4,16.7 74.1,17.7 C74.9,18.7 83,8.9 87,5.4 C91.2,1.9 91.6,-0.6 98,2.2 Z" id="Shape" fill="#ECC9B1"></path>
                            </g>
                            <g transform="translate(309.000000, 617.000000)" fill="#B0D4EA" fill-rule="nonzero" id="Shape">
                                <g>
                                    <path d="M36,201.6 C36.1,201.9 36.3,202.2 36.4,202.5 C37,203.9 37.2,205.4 37.1,206.8 C36.5,214.2 36.6,223.8 37,233.2 L25.2,239.8 C28.7,226.3 32.9,211.1 36,201.6 Z"></path>
                                    <path d="M4.3,271.3 L5.5,266.9 C8,268.6 11.5,268.8 14.1,268.5 L14.1,273.3 C11.2,273.6 6.4,272.1 4.3,271.3 Z"></path>
                                    <path d="M42.3,275.9 L42.3,270.2 C44,271.6 46.2,272.3 48.5,272.2 C48.8,272.2 49.2,272.2 49.5,272.1 C50,272.1 50.5,272 50.9,271.8 L50.9,275.6 C47.7,277.2 44.2,276.5 42.3,275.9 Z"></path>
                                    <path d="M25.1,239.8 L2.6,252.3 C3.4,243 5.6,231.9 6.1,228.7 C6.8,223.7 14.8,189.5 15.5,182.4 C15.8,179.1 15.2,170.7 14.5,162.5 C22.9,172.1 32.5,193.5 35.9,201.5 C32.9,211.1 28.7,226.3 25.1,239.8 Z"></path>
                                    <path d="M22.5,249.7 L2.5,260.7 C2.3,258.4 2.4,255.4 2.6,252.3 L25.1,239.8 C24.2,243.2 23.3,246.6 22.5,249.7 Z"></path>
                                    <path d="M3.3,264.4 C3.3,264.3 3.3,264.3 3.3,264.4 C2.9,263.4 2.6,262.2 2.5,260.7 L22.5,249.7 C22.1,251.3 21.7,252.9 21.3,254.3 L3.3,264.4 Z"></path>
                                    <path d="M16.6,268.3 C16,268.4 15.1,268.5 14.1,268.6 L14.1,267.3 L6.2,264.4 L5.5,266.9 C4.6,266.3 3.8,265.4 3.3,264.3 L21.3,254.3 C19.7,260.3 18.5,265 18,267 C17.8,267.7 17.3,268.2 16.6,268.3 Z"></path>
                                    <path d="M5.5,267 L6.2,264.5 L14.1,267.4 L14.1,268.7 C11.4,268.8 7.9,268.7 5.5,267 Z"></path>
                                    <path d="M37,206.8 C37.1,205.3 36.9,203.8 36.3,202.5 C36.2,202.2 36.1,201.9 35.9,201.6 C37.4,196.8 38.6,193.4 39.3,192.5 C42.9,187.5 25.6,151.9 25.6,151.9 L12.6,144.1 C12.6,144.1 13.6,153.2 14.5,162.7 C14.3,162.5 14.1,162.2 13.9,162 C12.9,161 12.3,159.7 11.8,158.4 C10.6,154.5 8.5,145.9 8.5,136.4 C8.7,136.2 8.9,136.1 9.1,135.9 C9.4,136.2 9.8,136.4 10.3,136.5 C17.1,138.9 25,138.7 31.9,137.7 C34.5,141.2 37.1,144.6 38.5,146.1 C36.9,146.2 35.7,146.2 35.7,146.2 L37.9,148.4 C37.9,148.4 43,149.1 47.3,148.4 C51.6,147.7 49.5,144.8 49.5,144.8 L48.8,144.1 L47.5,144.8 C47.4,144.8 47.4,144.8 47.3,144.9 C46.9,143.5 45.8,141.6 45.4,140.8 C45.3,140.6 45.2,140.4 45,140.2 C44.5,139.6 43.3,137.9 41.6,135.6 C45.1,134.6 47.8,133.6 49.2,133 C49.3,133.4 49.4,133.9 49.5,134.4 C51.4,148.6 56.6,186.1 58.9,193.1 C60,196.3 60,207.5 59.7,220.5 L36.9,233.2 C36.5,223.8 36.5,214.2 37,206.8 Z"></path>
                                    <path d="M37.3,241.6 C37.2,238.9 37,236.1 36.9,233.3 L59.7,220.6 C59.6,223.5 59.5,226.5 59.4,229.5 L37.3,241.6 Z"></path>
                                    <path d="M37.5,245.3 C37.4,244.1 37.4,242.8 37.3,241.6 L59.5,229.4 C59.5,230.7 59.4,231.9 59.4,233.2 L37.5,245.3 Z"></path>
                                    <path d="M37.5,245.3 L59.4,233.1 C59.2,239.3 58.9,245.5 58.6,250.9 L38.7,261.9 C38.3,257.5 37.9,251.7 37.5,245.3 Z"></path>
                                    <path d="M51,271.8 L51,268.1 L42.3,269.5 L42.3,270.1 C40.4,268.5 39,266.2 38.8,263.6 C38.8,263.1 38.7,262.5 38.7,261.9 L58.6,250.9 C58.4,255.7 58.1,260 57.9,263.3 C57.6,267.4 54.8,270.8 51,271.8 Z"></path>
                                    <path d="M48.5,272.1 C46.2,272.2 44,271.4 42.3,270.1 L42.3,269.5 L51,268.1 L51,271.8 C50.5,271.9 50.1,272 49.6,272.1 C49.2,272.1 48.9,272.1 48.5,272.1 Z"></path>
                                    <path d="M25.7,151.8 C25.7,151.8 43,187.4 39.4,192.4 C38.7,193.4 37.5,196.7 36,201.5 C32.6,193.6 23.1,172.1 14.6,162.5 C13.7,153 12.7,143.9 12.7,143.9 L25.7,151.8 Z"></path>
                                    <path d="M28.6,29.3 C25,28.6 21.5,29.1 21.5,29.1 C21.2,28.3 20.8,27.7 20.5,27.3 C20,26.6 19.9,25.7 20.3,24.9 C21.9,21.5 21.6,14.6 22.8,13.3 C23.9,12.2 25.1,11.9 25.6,11.9 C25.8,12 25.9,12.1 26,12.2 C27,13.3 30.1,16.6 32.6,17.4 C33.3,17.6 33.7,18.3 33.7,19 C33.7,19.5 33.9,19.9 34.3,20.2 C34.9,20.8 35.9,21.9 35.9,23.4 C35.9,25.6 37.3,28.5 35.9,29.2 C35.8,29.3 32.2,30 28.6,29.3 Z"></path>
                                    <path d="M21.3,46.3 C21.5,45.8 21.8,45.2 22,44.4 C22.8,41.5 22.5,39.8 22,38.9 C22.3,38.6 22.5,38.2 22.5,37.7 C22.7,36.3 22.8,34.1 22.2,31.8 C23.5,32.6 25,33.2 26.2,32.9 C29.1,32.2 31.8,37.8 31.8,37.8 C31.8,38.4 31.8,38.9 31.9,39.4 C32.6,42.3 32.6,43.7 34.1,46.6 C34.3,47 34.5,47.4 34.7,47.8 C34.4,47.7 34.1,47.7 33.8,47.7 C30.7,47.7 24.9,46.9 21.3,46.3 Z"></path>
                                    <path d="M26.4,32.9 C25.2,33.2 23.7,32.6 22.4,31.8 C22.3,31.4 22.2,31.1 22.1,30.7 C21.9,30.1 21.7,29.6 21.5,29.1 C21.5,29.1 25,28.5 28.6,29.3 C32.2,30 35.8,29.3 35.8,29.3 C34.4,30 33.6,32.2 33.6,32.2 C33.6,32.2 32.1,35.1 32,37.8 C32,37.8 29.3,32.2 26.4,32.9 Z"></path>
                                    <path d="M43.4,126.8 C41.7,126.2 39.8,125.6 37.6,124.9 C38.3,123.9 38.8,122.6 38.4,121.2 C39.2,120 39.8,118.4 38.7,116.6 C37.2,114.2 34.5,111.4 32.8,109.9 C31.9,109.1 31.3,108 31.2,106.8 C30.7,103 29.7,94.4 30.8,90 C30.9,89.7 30.9,89.4 31,89.1 C31.2,88.7 31.5,88.3 31.7,87.8 C41.3,70.5 36.6,66.9 30.1,61.1 C25.1,56.6 17,54.3 13.6,53.5 C14,52.8 14.5,52.2 14.9,51.7 L15.6,48.8 C15.5,48.8 15.4,48.8 15.3,48.8 C15.8,48.3 16.3,47.8 16.9,47.2 C17.9,46.3 19.2,45.9 20.5,46.2 C20.8,46.2 21.1,46.3 21.4,46.3 C20.7,47.7 20.1,48.3 19.5,48.6 C18.9,48.9 18.5,49.5 18.5,50.1 L18.5,51.4 C18.5,52.3 19.2,53.1 20.2,53.1 L35,53.1 C36.3,53.1 37.1,51.7 36.5,50.6 C36,49.8 35.5,48.8 35,47.8 C36.3,48.1 37.4,48.8 38,50 C41,55.6 47.5,68.4 48.1,74 C48.8,80.8 48.8,120.4 51.3,127.9 C51.6,128.8 51.6,129.7 51.3,130.6 C51,131.4 50.7,132.2 50.4,132.5 C50.3,132.6 50,132.8 49.4,133 C48.4,130.1 46.2,127.8 43.4,126.8 Z"></path>
                                    <path d="M17.9,62.4 C16,64.2 14.1,67.5 13.2,73.5 C11.8,78.9 11.3,87.3 13.3,100.4 C13.3,100.6 13.4,100.9 13.4,101.1 C13.4,103.2 13.6,114.6 15.1,122.5 C13.3,123 11.8,123.8 10.7,125.1 C9.4,108.9 6.4,71.3 7.7,66.9 C8.7,63.4 9.8,60.6 10.9,58.3 C12.1,58.5 16.6,59.4 21.4,61.1 C20,61 18.9,61.5 17.9,62.4 Z"></path>
                                    <path d="M25.5,62.8 C29.9,64.9 33.7,67.9 34.3,71.9 C35,76.9 33.4,80.9 31.6,83.6 C32,77.2 31.1,68.7 25.5,62.8 Z"></path>
                                    <path d="M35.5,126.8 C35.8,126.6 36.1,126.5 36.3,126.2 C36.7,125.9 37.1,125.4 37.5,124.9 C39.6,125.5 41.6,126.2 43.3,126.8 C46.2,127.8 48.3,130.1 49.2,133 C47.8,133.6 45.1,134.6 41.6,135.6 C39.9,133.1 37.7,130 35.5,126.8 Z"></path>
                                    <path d="M11.2,132.4 C11.2,132.1 11,129.3 10.6,125 C11.7,123.7 13.2,122.9 15,122.4 C15.6,125.7 16.5,128.4 17.7,129.5 C22,133.8 25.6,131.7 25.6,131.7 L27,131 C28.4,133 30.1,135.3 31.8,137.6 C24.9,138.6 17,138.8 10.2,136.4 C9.8,136.3 9.4,136 9,135.8 C10.6,134.6 11.2,133.1 11.2,132.4 Z"></path>
                                    <path d="M35,53.1 L20.1,53.1 C19.2,53.1 18.4,52.4 18.4,51.4 L18.4,50.1 C18.4,49.4 18.8,48.8 19.4,48.6 C19.9,48.3 20.6,47.7 21.3,46.3 C24.8,46.8 30.7,47.7 34,47.7 C34.3,47.7 34.6,47.7 34.9,47.8 C35.4,48.8 35.9,49.7 36.4,50.6 C37.1,51.7 36.3,53.1 35,53.1 Z"></path>
                                    <path d="M13.3,100.3 C11.4,87.2 11.8,78.8 13.2,73.4 C12.4,78.7 12.5,86.2 14,96.7 C14,96.9 14.1,97.2 14.1,97.4 C14.1,99.9 14.3,114.5 16.5,122 C16,122.1 15.5,122.2 15,122.3 C13.5,114.4 13.3,103.1 13.3,100.9 C13.4,100.8 13.4,100.6 13.3,100.3 Z"></path>
                                    <path d="M36,123.3 C36.4,123.1 36.7,122.9 37.1,122.6 C37.5,122.3 38,121.8 38.4,121.2 C38.8,122.7 38.3,124 37.6,124.9 C36.6,124.6 35.6,124.3 34.6,124 L36,123.3 Z"></path>
                                    <path d="M34.6,124 C35.6,124.3 36.7,124.6 37.6,124.9 C37.2,125.5 36.7,125.9 36.4,126.2 C36.1,126.4 35.9,126.6 35.6,126.8 C35.1,126 34.6,125.2 34,124.4 L34.6,124 Z"></path>
                                    <path d="M18.4,126 C21.4,129 24,128.9 25.4,128.5 C25.5,128.8 25.7,129 25.8,129.3 C26.2,129.8 26.6,130.4 27.1,131.1 L25.7,131.8 C25.7,131.8 22.1,134 17.8,129.6 C16.6,128.4 15.8,125.7 15.1,122.5 C15.6,122.4 16.1,122.3 16.6,122.2 C17.1,123.8 17.7,125.2 18.4,126 Z"></path>
                                    <path d="M45,140.1 C45.1,140.3 45.3,140.5 45.4,140.7 C45.8,141.5 46.9,143.4 47.3,144.8 C45.1,145.6 41.2,146 38.6,146.1 C37.2,144.6 34.6,141.2 32,137.7 C35.6,137.2 38.9,136.4 41.7,135.6 C43.2,137.8 44.5,139.5 45,140.1 Z"></path>
                                    <path d="M35.3,126.9 C35.4,126.9 35.5,126.8 35.5,126.7 C37.6,130 39.8,133.1 41.6,135.5 C38.8,136.3 35.5,137.1 31.9,137.6 C30.2,135.3 28.5,133 27.1,131 L35.3,126.9 Z"></path>
                                    <path d="M27.1,131 C26.7,130.4 26.2,129.8 25.8,129.2 C25.6,129 25.5,128.7 25.4,128.4 C26,128.2 26.4,128 26.4,128 L34,124.2 C34.5,125 35,125.8 35.6,126.6 C35.5,126.6 35.5,126.7 35.4,126.8 L27.1,131 Z"></path>
                                    <path d="M34.3,71.8 C33.7,67.8 29.9,64.9 25.5,62.7 C25.4,62.6 25.4,62.6 25.3,62.5 C24.2,61.3 22.7,60.8 21.2,60.9 C16.4,59.2 11.9,58.3 10.7,58.1 C11.6,56.2 12.6,54.6 13.5,53.4 C16.9,54.2 24.9,56.5 30,61 C36.5,66.8 41.2,70.4 31.6,87.7 C31.3,88.2 31.1,88.6 30.9,89 C31.2,87.6 31.5,85.7 31.6,83.5 C33.4,80.9 35.1,76.9 34.3,71.8 Z"></path>
                                    <path d="M32.1,113.5 C31.2,112.7 30.6,111.6 30.5,110.4 C30,106.6 29,98 30.1,93.6 C30.4,92.5 30.6,91.1 30.8,89.5 C30.9,89.4 30.9,89.3 31,89.1 C30.9,89.4 30.9,89.7 30.8,90 C29.7,94.4 30.7,103 31.2,106.8 C31.4,108 31.9,109.1 32.8,109.9 C34.5,111.4 37.2,114.2 38.7,116.6 C39.8,118.4 39.2,120 38.4,121.2 C38.3,120.9 38.2,120.5 38,120.2 C36.5,117.8 33.7,115 32.1,113.5 Z"></path>
                                    <path d="M17.9,62.4 C18.8,61.5 21,58.8 22.2,58.7 C23.6,59.2 25.8,60.9 27.2,61.5 C32.7,67.5 32,77.2 31.6,83.6 C31.4,83.9 31.2,84.2 31,84.5 C31,78.5 29.6,71.4 24.7,66.2 C22.7,64.1 19.4,64 17.2,66 C15.7,67.4 12.5,69.1 11.5,72.9 C12.4,66.8 16,64.1 17.9,62.4 Z"></path>
                                    <path d="M37.1,122.6 C36.8,122.9 36.4,123.1 36,123.3 L32.8,124.9 C32.5,124.8 33.9,123.9 33.6,123.8 C32.1,121.7 29.3,121.1 27.2,122.4 C23.4,121.8 16.7,122.2 13.6,122.7 C11.4,115.1 12.9,101.7 12.9,99.2 C12.9,99 12.9,97.3 12.9,97.1 C11.3,86.6 10.7,78.2 11.5,72.9 C12.5,69.1 15.7,67.4 17.2,66 C19.3,64 22.7,64.1 24.7,66.2 C29.6,71.4 31,78.5 31,84.5 C29.4,86.6 27.8,87.8 27.8,87.8 C27.8,87.8 22.4,103.9 30.7,89.5 C30.5,91.1 30.2,92.6 30,93.6 C28.9,98 29.9,106.6 30.4,110.4 C30.6,111.6 31.1,112.7 32,113.5 C33.7,115 36.4,117.8 37.9,120.2 C38.1,120.5 38.2,120.9 38.3,121.2 C38,121.8 37.5,122.3 37.1,122.6 Z"></path>
                                    <path d="M18.4,126 C17.6,125.2 17,123.9 16.5,122.1 C19.6,121.6 23.3,121.8 27.2,122.4 C26.9,122.6 26.6,122.8 26.3,123.1 C24.9,124.5 24.5,126.7 25.3,128.5 C24,128.8 21.4,128.9 18.4,126 Z"></path>
                                    <path d="M33.6,123.8 C33.9,123.9 34.2,124 34.5,124 L33.9,124.3 C33.8,124.2 33.7,124.1 33.7,123.9 C33.7,123.9 33.7,123.9 33.6,123.8 Z"></path>
                                    <path d="M33.6,123.8 C31.5,123.3 29.3,122.8 27.2,122.4 C29.3,121.1 32.2,121.7 33.6,123.8 Z"></path>
                                    <path d="M26.3,123.1 C26.6,122.8 26.9,122.6 27.2,122.4 C29.4,122.8 31.5,123.2 33.6,123.8 C33.6,123.9 33.7,123.9 33.7,124 C33.8,124.1 33.9,124.2 33.9,124.4 L26.3,128.2 C26.3,128.2 25.9,128.4 25.3,128.6 C24.6,126.7 24.9,124.5 26.3,123.1 Z"></path>
                                    <path d="M31,84.5 C31.2,84.2 31.4,83.9 31.6,83.6 C31.5,85.7 31.2,87.6 30.9,89.1 C30.8,89.2 30.8,89.3 30.7,89.5 C30.9,87.9 31,86.2 31,84.5 Z"></path>
                                    <path d="M25.4,65.2 C25.5,65.2 25.5,65.3 25.6,65.3 C24.2,64.9 22.7,64.5 21.3,64.2 C22.7,64.2 24.3,64.5 25.4,65.2 Z"></path>
                                    <path d="M30.7,89.4 C22.4,103.9 27.8,87.7 27.8,87.7 C27.8,87.7 29.3,86.6 31,84.4 C31,86.2 30.9,87.9 30.7,89.4 Z"></path>
                                    <path d="M3.3,271 C3.3,271 3.7,271.1 4.3,271.4 L4,272.5 C4,272.5 10.5,276.1 14.1,273.9 L14.1,273.5 C14.7,273.5 15.2,273.4 15.5,273.2 L16.8,274 L6.6,279.6 C5.4,279.6 3.4,279.8 1,280 C0.2,278.7 0.1,276.2 3.3,271 Z"></path>
                                    <path d="M7.9,279.5 C7.9,279.5 7.4,279.5 6.6,279.5 L16.8,273.9 L24.6,278.4 C16.1,278.7 7.9,279.5 7.9,279.5 Z"></path>
                                    <path d="M3.8,281.1 C3.3,281.1 1.9,281.1 1.1,280 C3.4,279.7 5.4,279.6 6.7,279.6 L3.8,281.1 Z"></path>
                                    <path d="M7.9,279.5 C7.9,279.5 16,278.8 24.6,278.4 L29.2,281.1 C29.2,281.1 31.4,284 29.2,284.7 C27,285.4 8.2,281.8 3.9,281.1 C3.9,281.1 3.8,281.1 3.7,281.1 L6.5,279.5 C7.5,279.5 7.9,279.5 7.9,279.5 Z"></path>
                                    <path d="M4,272.4 L4.3,271.3 C6.4,272 11.2,273.6 14.1,273.4 L14.1,273.8 C10.5,276 4,272.4 4,272.4 Z"></path>
                                    <path d="M67.3,280.9 C67.3,280.9 49.3,282.3 43.8,279.5 C42.9,279.1 41.4,278.8 39.6,278.6 C39.9,277.7 40.2,276.6 40.8,275.3 C40.8,275.3 41.3,275.6 42.2,275.9 L42.2,276.8 C42.2,276.8 46.5,279 50.9,276.8 L50.9,275.7 C51.1,275.6 51.4,275.5 51.6,275.3 C51.6,275.3 66.8,278.2 68.2,279.6 C69.3,280.7 69.6,281.8 69.3,282.6 C68.6,281.7 67.3,280.9 67.3,280.9 Z"></path>
                                    <path d="M55.3,284.7 C50.2,285.4 42.3,284.7 42.3,284.7 C42.3,284.7 38,284.7 39.6,278.6 C41.5,278.8 43,279.1 43.8,279.5 C49.3,282.3 67.3,280.9 67.3,280.9 C67.3,280.9 68.6,281.8 69.4,282.6 C69.3,282.8 69.2,283.1 69,283.2 C68.3,284 60.3,284 55.3,284.7 Z"></path>
                                    <path d="M42.3,276.7 L42.3,275.8 C44.2,276.4 47.7,277.1 51,275.6 L51,276.7 C46.6,278.9 42.3,276.7 42.3,276.7 Z"></path>
                                    <path d="M39.4,146.9 C41.6,148.3 46.6,146.9 47.3,146.2 C47.5,146 47.4,145.5 47.2,144.8 C47.3,144.8 47.3,144.8 47.4,144.7 L48.7,144 L49.4,144.7 C49.4,144.7 51.6,147.6 47.2,148.3 C42.9,149 37.8,148.3 37.8,148.3 L35.6,146.1 C35.6,146.1 36.7,146.1 38.4,146 C38.9,146.5 39.2,146.7 39.4,146.9 Z"></path>
                                    <path d="M47.3,146.2 C46.6,146.9 41.5,148.4 39.4,146.9 C39.2,146.8 38.9,146.5 38.6,146.1 C41.2,146 45.1,145.7 47.3,144.8 C47.5,145.4 47.5,146 47.3,146.2 Z"></path>
                                    <path d="M18.4,9.8 C18.4,9.8 18.4,9.8 20.6,15.6 C22.2,19.9 20.2,24.6 19.1,26.7 C18.8,27.4 18.9,28.2 19.4,28.7 C19.6,28.9 19.8,29.1 20,29.3 C20.4,29.8 20.8,30.4 21.1,31 C21.2,31.2 21.3,31.3 21.3,31.5 C21.8,33.1 21.6,35.9 21.4,37.3 C21.3,37.7 21.5,38.1 21.7,38.5 C21.8,38.6 21.9,38.8 22,39 C21.5,39.6 20.7,39.9 19.8,39.7 C19.6,39.6 19.3,39.6 19.1,39.4 C17.7,38.7 9,35.1 6.8,32.2 C4.6,29.3 5.4,25.7 5.4,23.5 C5.4,21.3 2.5,17 1.8,14.8 C1,12.5 1.9,6.1 6.2,6.9 C9.9,7.7 13.5,5.4 15,1.9 C15.4,1.1 15.9,0.7 17.7,1.1 C21.3,1.8 17.7,4.7 22.8,3.3 C27.9,1.9 26.4,12 25.7,12 C25.7,12 25.6,12 25.6,12 C25.5,11.9 25.4,11.9 25.3,11.9 L18.4,9.8 Z"></path>
                                    <path d="M20.2,25 C19.8,25.8 19.9,26.7 20.4,27.4 C20.7,27.8 21,28.4 21.4,29.2 L20,29.3 C19.8,29.1 19.6,28.9 19.4,28.7 C18.9,28.2 18.7,27.4 19.1,26.7 C20.2,24.6 22.2,19.9 20.6,15.6 C18.4,9.8 18.4,9.8 18.4,9.8 L25.2,11.8 C25.3,11.8 25.4,11.9 25.5,11.9 C25,11.9 23.9,12.2 22.7,13.3 C21.5,14.6 21.9,21.6 20.2,25 Z"></path>
                                    <path d="M21.4,37.2 C21.6,35.9 21.8,33 21.3,31.4 C21.2,31.2 21.2,31.1 21.1,30.9 C21.5,31.2 21.9,31.5 22.3,31.7 C22.8,34 22.7,36.2 22.6,37.6 C22.5,38.1 22.3,38.5 22.1,38.8 C22,38.6 21.9,38.4 21.8,38.3 C21.5,38 21.4,37.6 21.4,37.2 Z"></path>
                                    <path d="M20,29.2 L21.4,29.1 C21.6,29.6 21.8,30.1 22,30.7 C22.1,31.1 22.2,31.4 22.3,31.8 C21.9,31.5 21.4,31.2 21.1,31 C20.8,30.3 20.4,29.7 20,29.2 Z"></path>
                                    <path d="M8.6,135.3 C8.8,135.5 9,135.7 9.2,135.9 C9,136.1 8.8,136.2 8.6,136.4 C8.6,136 8.6,135.6 8.6,135.3 Z"></path>
                                </g>
                                <path d="M15.1,36.6 C15.1,36.6 13,49.9 15.1,49.6 C17.2,49.4 36.5,48.7 38.6,50.8 C40.7,52.9 47.9,45.1 43.6,40.8 C39.3,36.6 15.1,35.9 15.1,36.6 Z"></path>
                                <path d="M42.9,48 C42.9,48 50.7,60.1 52.9,70.8 C55,81.5 49.3,93.6 49.3,97.8 C49.3,102.1 50,104.2 50,104.2 C50,104.2 43.6,98.5 40.7,99.9 C37.8,101.3 45.7,52.2 38.6,49.4 C31.5,46.6 42.9,48 42.9,48 Z"></path>
                            </g>
                            <g transform="translate(257.000000, 615.000000)" fill="#A6C7E2" fill-rule="nonzero">
                                <path d="M29.4,25.5 C29.4,25.5 31.6,43.1 31.2,45.1 C30.8,47.1 38.6,55.3 38.6,55.3 L44.7,49.8 C44.7,49.8 44,37.7 46.6,31.4 C49.3,25 30.4,22 30.4,22 L29.4,25.5 Z" id="Shape"></path>
                                <path d="M37.5,1.6 C43.8,-1.3 51.1,3 52.2,9.8 C52.7,13.4 53,18.4 52.4,25.1 C50.7,46.5 38.9,37.6 35.8,33.6 C32.7,29.5 30.3,22.9 30.3,22.9 C30.3,22.9 28.9,23.4 26.5,19.7 C24.1,15.9 24,11.5 26.1,13.1 C30.6,16.4 31.7,12.6 32.4,10.4 C32.8,8.9 32.3,4 37.5,1.6 Z" id="Shape"></path>
                                <path d="M59.2,281.3 C59.2,281.3 69.4,287.9 73.3,288.5 C77.2,289.1 85,292.1 86.8,295.1 C88.6,298.1 79,299.3 70.5,298.1 C62,296.9 49.7,292.4 46.4,293.9 C43.1,295.4 41.3,291.4 41,289.9 C40.7,288.5 42.4,280.5 42.4,280.5 L59.2,281.3 Z" id="Shape"></path>
                                <path d="M36.1,278.6 C36.1,278.6 41.6,285.8 43.2,287.9 C44.8,290 64.2,293.9 67.3,296 C70.4,298.1 65.2,302.3 59.2,302 C53.2,301.7 51.5,301.1 43.2,299.9 C34.9,298.7 26.5,298.6 26.5,298.6 C26.5,298.6 21.3,299.9 18.8,296.6 C16.3,293.3 15.7,289.7 16.9,287.6 C18.1,285.5 21.5,284.5 21.5,280.5 C21.5,276.5 36.1,278.6 36.1,278.6 Z" id="Shape"></path>
                                <path d="M62.5,130.1 C62.5,130.1 73,218.2 69.8,227 C66.7,235.8 65.4,279.6 61.3,282.5 C57.3,285.4 44.3,283.8 42.3,280.5 C42.3,280.5 50.6,201.7 45.8,186.7 C41.1,171.7 38.9,169.6 38.9,169.6 C38.9,169.6 40.4,216.7 41.3,221.4 C42.2,226.1 38.9,279.8 38.9,279.8 C38.9,279.8 25.1,285.6 18.2,278 C18.2,278 15.4,171.5 14.1,151.6 C13.4,141.3 24.7,126.1 24.7,126.1 L62.5,130.1 Z" id="Shape"></path>
                                <path d="M63.4,137.4 C63.4,137.4 38.7,153.5 18.9,135.8 L21.2,128.1 L63.4,129.9 L63.4,137.4 Z" id="Shape"></path>
                                <path d="M24.5,45.4 C24.5,45.4 13.8,50.9 12.9,54.9 C12,58.9 14.1,128.2 19.5,132.7 C20.7,133.7 31.9,140.8 49,138.3 C58.7,136.8 68.2,131.5 69.3,121.7 C71,106.2 71.5,79.5 67.2,62.1 C65.9,56.6 61.7,52.3 56.3,50.7 L48.9,48.5 L40.2,52.5 L24.5,45.4 Z" id="Shape"></path>
                                <polygon id="Shape" points="44.6 43 54.6 49.8 46.9 50 39.8 55.8 29.4 51.8 18.8 46.9 28.1 43 38.6 48.4"></polygon>
                                <path d="M57.6,53.6 C57.6,53.6 64.5,101.7 68.4,108.4 L70.6,88.6 C70.5,88.6 66.8,52.7 57.6,53.6 Z" id="Shape"></path>
                                <rect id="Rectangle-path" transform="translate(43.225400, 141.484500) rotate(-180.000000) translate(-43.225400, -141.484500) " x="38.6254" y="138.8845" width="9.2" height="5.2"></rect>
                                <path d="M21,46.9 C21,46.9 -5.6,53.8 1.8,115.4 L2.1,122.3 C2.7,129.7 3,133.9 10.2,135.8 C12.8,136.5 19.6,133.7 21,132.2 C32.3,120 18.3,124.5 16.5,105.1 C13.9,78.5 21,46.9 21,46.9 Z" id="Shape"></path>
                                <path d="M40.8,116 C40.8,116 33,112.5 25,115.8 C24.9,115.9 24.7,115.9 24.6,116 L29.1,120.5 L39,117.8 L40.8,116 Z" id="Shape"></path>
                                <path d="M40.8,116 L40.8,140.2 C40.8,140.2 31.8,143.8 24.6,140.2 L24.6,115.7 C24.6,115.7 29.1,120.5 40.8,116 Z" id="Shape"></path>
                                <path d="M25.5,122.3 C25.5,122.3 22.8,120.5 21,120.5 C19.2,120.5 17.4,125 18.3,127.7 C19.2,130.4 25.5,134.9 25.5,134.9 L25.5,122.3 Z" id="Shape"></path>
                                <path d="M21.5,119.2 C21.5,119.2 17.9,116.5 15.2,119.2 C12.5,121.9 9.8,126.4 8.9,127.3 C8,128.2 6.2,129.1 6.2,129.1 C6.2,129.1 9.8,135.4 12.5,134.5 C15.2,133.6 22.4,132.7 22.4,130.9 C22.4,129.1 23.3,126.4 22.4,126.4 C21.5,126.4 22.4,124.6 22.4,123.7 C22.4,122.8 22.4,120 21.5,119.2 Z" id="Shape"></path>
                            </g>
                            <path d="M119.3,620 C119.3,620 109.2,610.8 111.9,606.2 C114.6,601.6 113.7,597.9 117.4,595.1 C121.1,592.3 118.3,596 124.8,591.4 C131.2,586.8 132.2,585 134,585 C135.8,585 141.4,585 141.4,586.8 C141.4,588.6 137.7,589.6 141.4,590.5 C145.1,591.4 147.4,590.5 147.6,594.2 C147.8,597.9 143.2,601.3 143.2,601.3 C143.2,601.3 139.5,597.8 133.1,600.6 C126.7,603.4 126.9,604.1 126.7,608 C126.5,611.9 123,610.8 123,610.8 C123,610.8 123,612.6 120.2,613.6 C117.5,614.5 117.5,618.2 119.3,620 Z" id="Shape" fill="#A3A495" fill-rule="nonzero"></path>
                            <polygon id="Shape" fill="#6690D8" fill-rule="nonzero" points="117 758 117 773 154 773 154 748.7"></polygon>
                            <polygon id="Shape" fill="#79A9D8" fill-rule="nonzero" points="134.3 739 157 739 157 760 115 760 115 741"></polygon>
                            <path d="M95,681 L93,692 L122,738 C122,738 125,749 133,751 C141,753 140,752 140,752 C140,752 135,738 131,734 C127,730 125,730 125,730 L105.1,691.4 L107.3,677.6 L95,681 Z" id="Shape" fill="#ECC9B1" fill-rule="nonzero"></path>
                            <path d="M130,733 C130,733 134.7,730 138.8,739" id="Shape" stroke="#6690D8"></path>
                            <rect id="Rectangle-path" fill="#6690D8" fill-rule="nonzero" x="132" y="756" width="7" height="2"></rect>
                            <path d="M576,890 L1656,912 L1701,1548 C1701,1548 1365.3,1857.2 1041,1518 C932,1404 1004,1145 791,1025 C743.6,998.3 478,918 478,918 L576,890 Z" id="Shape" fill="url(#linearGradient-6)" fill-rule="nonzero"></path>
                            <path d="M704,927 C704,927 732,934 725,937 C718,940 693,936 684,938 C675,940 634,965 613,955 C592,945 524,939 517,939 C510,939 461,928 458,925 C455,922 564,895 575,899 C586,903 598,924 616,919 C625.2,916.4 635.7,918.1 643.8,920.3 C654.2,923.1 664.9,924 675.6,922.9 C685.4,921.9 695.6,921 697.1,921.7 C700,923 704,927 704,927 Z" id="Shape" fill="#45ABF9" fill-rule="nonzero"></path>
                            <polygon id="Shape" fill="url(#linearGradient-7)" fill-rule="nonzero" points="459.1 555.6 579 555.6 579 925 458 925"></polygon>
                            <path d="M579,902 C579,902 559,888 545,887 C531,886 529,883 518,897 C507,911 460,924.5 460,924.5 L579,925 L579,902 Z" id="Shape" fill="#EA404F" fill-rule="nonzero"></path>
                            <polygon id="Shape" fill="#EA404F" fill-rule="nonzero" opacity="0.4" points="472.3 556 543.7 925.3 458 925 459 556"></polygon>
                            <path d="M722.2,670.9 C722.2,670.9 730.6,666.5 735.2,663.8 C739.8,661.1 740.9,653.4 740.9,653.4 L734.3,652.3 L724.4,655.6 L716.7,666.6 L722.2,670.9 Z" id="Shape" fill="#FFC692" fill-rule="nonzero"></path>
                            <g transform="translate(459.000000, 239.000000)" fill-rule="nonzero" id="Shape">
                                <polygon fill="url(#linearGradient-8)" opacity="0.18" points="120 324 120 652 0 618 0 376"></polygon>
                                <polygon fill="url(#linearGradient-9)" opacity="0.54" points="120 391 119.6 324.3 864 0 974 895 120 652.1"></polygon>
                                <path d="M211.9,377.2 C210.7,377.2 204,385.7 202.8,388.8 C201.6,391.8 203.4,394.9 203.4,394.9 C203.4,394.9 188.8,391.9 187,388.8 C187,388.8 190.7,381.5 187.6,375.4 C184.6,369.3 197.9,357.8 197.9,357.8 L211.3,376.7 L211.9,377.2 Z" fill="#F5AF7E"></path>
                                <path d="M220.2,346.7 L222.4,355.4 C222.4,355.4 221.2,358.4 221,360.5 C220.8,362.6 222.4,367.8 222.4,367.8 L220.9,369.1 C220.9,369.1 220.9,379.7 219.6,380.6 C218.6,381.3 210.6,378.6 205.6,377 C202.6,376 200,373.5 198.8,370.1 C198.6,369.5 198.4,368.9 198.4,368.3 C198.1,365.3 195,366.2 194.2,365 C193.4,363.8 192.9,358.1 194.7,358.1 C196.5,358.1 195.5,355.3 196.1,356.6 C196.6,357.9 205.7,349.8 210,347.2 C214.1,344.7 214.9,342.3 220.2,346.7 Z" fill="#FFC692"></path>
                                <polygon fill="#BF309D" points="203.3 394.4 208.1 401.1 208.3 395.5"></polygon>
                                <path d="M178.5,556.7 C178.5,556.7 171.2,575.6 168.2,578.6 C165.2,581.6 115.9,626.7 111,635.2 C106.1,643.7 115.9,657.7 115.3,658.9 C114.7,660.1 98.9,641.9 98.3,637.6 C97.7,633.3 102,634.6 104.4,630.3 C106.8,626 136.6,573.1 156.7,565.8 C156.7,565.8 160.4,559.1 159.7,552.4 C159,545.7 178.5,556.7 178.5,556.7 Z" fill="#F5AF7E"></path>
                                <g transform="translate(172.000000, 392.000000)">
                                    <path d="M33.1,11.4 L53.9,59.7 L84.6,33.4 C84.6,33.4 91.2,37.8 92.3,42.2 C92.3,42.2 69.3,68.5 53.9,76.2 L28.7,52 L33.1,11.4 Z" fill="#BF309D"></path>
                                    <path d="M5.3,75.9 L16.2,77.7 C16.2,77.7 20.5,69.2 13.8,55.8 C7.1,42.4 10.8,8.3 10.8,8.3 L21.1,4.6 L12.6,0.3 L32.7,3.3 C32.1,9.4 40,19.7 41.8,24 C43.6,28.3 46.7,35 44.8,38.6 C43,42.3 38.7,58.1 38.7,68.4 C38.7,72.1 39,75 39.4,77.2 C40.1,81.2 39.9,83 39.9,83 C36.6,86.3 7.3,82.6 1.8,81.9 C2.6,81.8 3.9,80.5 5.3,75.9 Z" fill="url(#linearGradient-10)"></path>
                                    <path d="M1,81.9 C1,81.9 1.3,81.9 1.9,82 C1.3,82.3 1,81.9 1,81.9 Z" fill="url(#linearGradient-11)"></path>
                                    <path d="M16.8,13.2 C16.8,13.2 14.4,43 21.1,56.4 C27.8,69.8 16.2,77.7 16.2,77.7 L5.3,75.9 C5.7,74.7 6.1,73.3 6.5,71.6 C9.5,58.8 1.6,27.8 1,23.5 C0.4,19.2 12.6,0.4 12.6,0.4 L21.1,4.7 L16.8,13.2 Z" fill="url(#linearGradient-12)"></path>
                                </g>
                                <g transform="translate(195.000000, 545.000000)">
                                    <path d="M35.8,123.7 C37,120.7 15.7,83.5 11.5,68.3 C7.2,53.1 12.1,34.8 12.7,28.1 C13.3,21.4 9,11.7 9,11.7 L0.7,10.5 L0.4,9.9 C0.4,9.9 10.1,-4.7 18,3.2 C25.9,11.1 22.3,14.8 22.9,26.3 C23.5,37.9 36.9,118.8 42.4,122.4 C47.9,126.1 61.3,135.8 61.3,135.8 C61.3,135.8 61.3,135.8 59.5,136.4 C58.1,136.9 43.7,135.2 36.6,134.4 C36.6,132.1 34.9,126 35.8,123.7 Z" fill="#FFC692"></path>
                                    <path d="M34.6,134.2 C33.4,134.1 32.7,134 32.7,134 C32.7,134 32.6,133.5 32.6,132.7 L32.7,132.8 C32.8,132.8 33.6,133.5 34.6,134.2 Z" fill="#FFC692"></path>
                                    <path d="M37,136 C37.7,136.6 36.1,135.4 34.6,134.2 C35.2,134.3 35.8,134.3 36.6,134.4 C36.6,135.2 36.7,135.7 37,136 Z" fill="#F5AF7E"></path>
                                    <path d="M33.4,125.5 C34.6,120 18.2,94.5 10.3,74.4 C2.4,54.3 7.9,26.9 7.9,26.9 L0.8,10.4 L9.1,11.6 C9.1,11.6 16.4,20.7 15.8,27.4 C15.2,34.1 9.7,51.7 14,67 C18.3,82.2 40.2,122.4 38.9,125.4 C38,127.7 36.7,132 36.7,134.4 C35.9,134.3 35.3,134.2 34.7,134.2 C33.7,133.4 32.8,132.8 32.8,132.8 L32.7,132.7 C32.6,131.3 32.6,128.9 33.4,125.5 Z" fill="#F5AF7E"></path>
                                </g>
                                <path d="M211.3,469.7 C211.3,469.7 182.1,470.9 177.2,467.9 C177.2,467.9 168.7,479.5 167.5,486.2 C166.3,492.9 170.5,506.3 169.3,511.8 C168.1,517.3 162.6,548.9 157.1,553.2 C157.1,553.2 189.3,567.8 221,553.8 C221,553.8 211.9,520.3 210,512.4 C208.1,504.5 216.2,486.7 211.3,469.7 Z" fill="url(#linearGradient-13)"></path>
                                <path d="M188.2,469.7 C188.2,469.7 177.2,481.9 178.5,495.3 C179.7,508.6 178.5,509.3 195.5,558.1 C195.6,558.5 195.4,559.4 195.6,559.8 C195.6,559.8 173.7,560.4 157.3,553.1 C157.3,553.1 169.2,519.3 168.9,509.3 C168.6,499.3 163.2,488.2 173.2,474 C177.5,467.9 177.5,467.9 177.5,467.9 L188.2,469.7 Z" fill="#0069E7"></path>
                                <path d="M275.2,691.2 C275.2,691.2 261.2,694.9 250.3,691.8 C239.4,688.7 237.5,685.7 235.7,685.7 C233.9,685.7 233.9,687.5 233.9,687.5 L227.8,686.9 C227.8,686.9 226.6,682.6 227.2,680.8 C227.8,679 238.2,682.6 238.2,682.6 L275.2,691.2 Z" fill="#103389"></path>
                                <path d="M227.8,678.1 C227.8,678.1 249.7,682.1 256.4,680.8 C256.4,680.8 267.4,686.9 271.6,688.7 C275.9,690.5 275.9,690.5 275.3,691.1 C274.7,691.7 252.2,690.5 245.5,687.4 C238.8,684.4 235.2,682.5 231.5,683.1 C227.8,683.9 225.9,682 227.8,678.1 Z" fill="url(#linearGradient-14)"></path>
                                <path d="M120.8,678.7 C120.8,678.7 108.5,671.2 103,661.2 C97.6,651.2 98.5,647.8 97.2,646.5 C95.9,645.2 94.6,646.5 94.6,646.5 L90.8,641.7 C90.8,641.7 93,637.9 94.8,637 C96.5,636.2 101.1,646.2 101.1,646.2 L120.8,678.7 Z" fill="#103389"></path>
                                <path d="M97.3,635.5 C97.3,635.5 109.7,654 115.2,658 C115.2,658 118.4,670.1 120.1,674.4 C121.7,678.7 121.7,678.7 120.9,678.7 C120,678.7 105.3,661.6 102.8,654.7 C100.3,647.8 99.1,643.9 96.2,641.7 C93.2,639.5 93.2,636.9 97.3,635.5 Z" fill="url(#linearGradient-15)"></path>
                                <polygon fill="#EF60AB" points="185.2 386.3 205.9 394.8 204 401.5 178.5 391.2"></polygon>
                            </g>
                            <path d="M653.7,646.3 C653.7,646.3 647.7,639.2 642.2,643.6 C637.5,647.3 627.3,685.4 624.3,696.5 C623.8,698.5 623.9,700.5 624.6,702.5 L640,744.5 C640,744.5 651,741.2 652.1,739 L638.9,696.2 C638.9,696.2 660.8,666.6 653.7,646.3 Z" id="Shape" fill="#BF309D" fill-rule="nonzero"></path>
                            <path d="M639.9,615 C639.9,615 625.6,621.6 625.6,633.6 C625.6,645.7 628.9,650.1 626.7,655.5 C624.5,660.9 621.2,663.2 621.2,668.7 C621.2,674.2 631.1,686.3 631.1,686.3 C631.1,686.3 635.5,680.8 639.9,672 C644.3,663.2 645.4,662.1 644.3,650.1 C643.2,638 638.3,621 644,615.8 C649.8,610.6 649.8,609.5 649.8,609.5 L639.9,615 Z" id="Shape" fill="url(#linearGradient-16)" fill-rule="nonzero"></path>
                            <path d="M677,582.1 C678.4,583.5 679.5,585.2 680,587 C680,587 664.1,596.3 659.7,597.4 C655.3,598.5 653.1,595.8 652.6,598.2 C652.1,600.7 653.7,605.1 656.2,605.1 C656.2,605.1 654.3,613.9 647.7,615 C641.1,616.1 640,615 640,615 C640,615 638.3,580.6 659.2,576.4 C665.6,575.1 672.4,577.3 677,582.1 Z" id="Shape" fill="url(#linearGradient-17)" fill-rule="nonzero"></path>
                            <path d="M624.6,769.3 L669.6,769.3 C669.6,769.3 667.4,818.7 669.6,829.6 C669.6,829.6 632.9,832.7 625,828.3 C625,828.3 627.7,785.9 624.6,769.3 Z" id="Shape" fill="#FEFF00" fill-rule="nonzero"></path>
                            <path d="M669.6,829.6 C669.6,829.6 672.2,819.5 677.5,822.6 C677.5,822.6 668.8,785.5 678.4,768 L669.2,769.3 C669.2,769.3 661.7,821.7 669.6,829.6 Z" id="Shape" fill="#FFE000" fill-rule="nonzero"></path>
                            <path d="M624.6,769.3 C624.6,769.3 633.3,770.2 639.5,765.8 L678,768 C678,768 680,767.4 674.5,774.1 C670.6,778.9 667.7,770.6 669.3,772.4 C669.8,773 668.9,772.4 668.9,772.4" id="Shape" fill="#9FB3D4" fill-rule="nonzero"></path>
                            <path d="M641.2,770.6 C641.2,770.6 639.5,749.2 648.2,749.2 C656.9,749.2 657.4,771.9 657.4,771.9" id="Shape" stroke="#FEFF00"></path>
                            <path d="M645.7,765.9 C645.7,765.9 641.4,749.8 645.8,749 C650.2,748.1 663.3,766.9 663.3,766.9" id="Shape" stroke="#FFE000"></path>
                            <path d="M754.4,647.8 L738.6,663.6 C737.9,664.3 736.8,664.5 735.9,664.1 L726.1,659.6 C724.5,658.9 724.2,656.7 725.6,655.6 L743.1,641.3 C743.8,640.8 744.6,640.6 745.4,640.9 L753.4,643.9 C755.2,644.5 755.6,646.6 754.4,647.8 Z" id="Shape" fill="#C70000" fill-rule="nonzero"></path>
                            <path d="M753.6,646.2 L737.8,662 C737.1,662.7 736,662.9 735.1,662.5 L725.3,658 C723.7,657.3 723.4,655.1 724.8,654 L742.3,639.7 C743,639.2 743.8,639 744.6,639.3 L752.6,642.3 C754.4,642.9 754.8,645 753.6,646.2 Z" id="Shape" fill="#FF0000" fill-rule="nonzero"></path>
                            <path d="M752.4,645.8 L738.6,659.6 C738,660.2 737,660.4 736.2,660 L727.6,656.1 C726.2,655.5 726,653.6 727.2,652.6 L742.6,640.1 C743.2,639.6 744,639.5 744.7,639.8 L751.7,642.4 C753.1,642.9 753.5,644.7 752.4,645.8 Z" id="Shape" fill="#FFFFFF" fill-rule="nonzero"></path>
                            <path d="M735.4,645.6 C735.4,645.6 729.9,645.2 729.9,646.8 C729.9,648.4 729.2,650.4 729.2,650.4 C729.2,650.4 732.3,648.4 733.9,647.6 C735.5,646.8 736.1,646 735.4,645.6 Z" id="Shape" fill="#FFC692" fill-rule="nonzero"></path>
                            <path d="M111,683 C111,683 92,684 91,683 C90,682 92.5,644.2 102.8,642.1 C113.1,640 111,683 111,683 Z" id="Shape" fill="#79A9D8" fill-rule="nonzero"></path>
                            <path d="M617,340 C617,340 612,313 629,302 C646,291 618,334 617,340 Z" id="Shape" fill="#A0E4F9" fill-rule="nonzero"></path>
                            <path d="M691,254 C694,251 712,229 711,245 C710,261 689,260 689,260 L691,254 Z" id="Shape" fill="#A0E4F9" fill-rule="nonzero"></path>
                            <path d="M732.2,371.7 C735.1,361.2 745.4,354.2 756.1,356 C761.3,356.9 764.6,359.7 761,366.9 C752,384.9 724,400.9 724,400.9 L732.2,371.7 Z" id="Shape" fill="#FFFFFF" fill-rule="nonzero"></path>
                            <path d="M760,250.2 C760,250.2 742.2,263.2 747,272.6 C751.9,282 760,250.2 760,250.2 Z" id="Shape" fill="#FFFFFF" fill-rule="nonzero"></path>
                            <path d="M647,1049 C647,1049 685,1062 692,1086 C699,1110 661,1103 647,1049 Z" id="Shape" fill="#A0E4F9" fill-rule="nonzero"></path>
                            <rect id="Rectangle-path" fill="url(#linearGradient-18)" fill-rule="nonzero" x="451" y="548" width="10" height="383"></rect>
                            <rect id="Rectangle-path" fill="url(#linearGradient-19)" fill-rule="nonzero" opacity="0.58" x="484.7" y="590.7" width="71.1" height="41.3"></rect>
                            <rect id="Rectangle-path" fill="url(#linearGradient-20)" fill-rule="nonzero" x="483" y="589" width="71.1" height="41.3"></rect>
                            <circle id="Oval" fill="url(#linearGradient-21)" fill-rule="nonzero" opacity="0.58" cx="561.5" cy="758.5" r="7.5"></circle>
                            <circle id="Oval" fill="#FFCF00" fill-rule="nonzero" cx="560.5" cy="755.5" r="7.5"></circle>
                            <polygon id="Shape" fill="#FFFFFF" fill-rule="nonzero" points="483 603.8 519.5 589 483 589 483.2 602.8"></polygon>
                        </g>
                    </g>
                </g>
            </g>
        </g>
    </g>
</svg>